<?xml version="1.0" encoding="UTF-8"?>
<!DOCTYPE svg PUBLIC "-//W3C//DTD SVG 1.1//EN" "http://www.w3.org/Graphics/SVG/1.1/DTD/svg11.dtd">
<svg width="160mm" height="90mm" viewBox="0 0 16000 9000" version="1.1" xmlns="http://www.w3.org/2000/svg" stroke-width="28.222" stroke-linejoin="round" xml:space="preserve">
 <path fill="rgb(255,255,255)" stroke="none" d="M 8045,8999 L 45,8999 45,0 16044,0 16044,8999 8045,8999 Z"/>
 <path fill="none" stroke="rgb(179,179,179)" stroke-linejoin="round" d="M 8281,8600 L 1894,8600 1894,296 14669,296 14669,8600 8281,8600 Z"/>
 <path fill="none" stroke="rgb(179,179,179)" stroke-linejoin="round" d="M 14669,8599 L 1894,8599"/>
 <path fill="none" stroke="rgb(179,179,179)" stroke-linejoin="round" d="M 14669,7412 L 1894,7412"/>
 <path fill="none" stroke="rgb(179,179,179)" stroke-linejoin="round" d="M 14669,6226 L 1894,6226"/>
 <path fill="none" stroke="rgb(179,179,179)" stroke-linejoin="round" d="M 14669,5039 L 1894,5039"/>
 <path fill="none" stroke="rgb(179,179,179)" stroke-linejoin="round" d="M 14669,3854 L 1894,3854"/>
 <path fill="none" stroke="rgb(179,179,179)" stroke-linejoin="round" d="M 14669,2667 L 1894,2667"/>
 <path fill="none" stroke="rgb(179,179,179)" stroke-linejoin="round" d="M 14669,1481 L 1894,1481"/>
 <path fill="none" stroke="rgb(179,179,179)" stroke-linejoin="round" d="M 14669,295 L 1894,295"/>
 <path fill="none" stroke="rgb(179,179,179)" stroke-linejoin="round" d="M 1744,8599 L 1894,8599"/>
 <path fill="none" stroke="rgb(179,179,179)" stroke-linejoin="round" d="M 1744,8599 L 1894,8599"/>
 <path fill="none" stroke="rgb(179,179,179)" stroke-linejoin="round" d="M 1744,7412 L 1894,7412"/>
 <path fill="none" stroke="rgb(179,179,179)" stroke-linejoin="round" d="M 1744,7412 L 1894,7412"/>
 <path fill="none" stroke="rgb(179,179,179)" stroke-linejoin="round" d="M 1744,6226 L 1894,6226"/>
 <path fill="none" stroke="rgb(179,179,179)" stroke-linejoin="round" d="M 1744,6226 L 1894,6226"/>
 <path fill="none" stroke="rgb(179,179,179)" stroke-linejoin="round" d="M 1744,5039 L 1894,5039"/>
 <path fill="none" stroke="rgb(179,179,179)" stroke-linejoin="round" d="M 1744,5039 L 1894,5039"/>
 <path fill="none" stroke="rgb(179,179,179)" stroke-linejoin="round" d="M 1744,3854 L 1894,3854"/>
 <path fill="none" stroke="rgb(179,179,179)" stroke-linejoin="round" d="M 1744,3854 L 1894,3854"/>
 <path fill="none" stroke="rgb(179,179,179)" stroke-linejoin="round" d="M 1744,2667 L 1894,2667"/>
 <path fill="none" stroke="rgb(179,179,179)" stroke-linejoin="round" d="M 1744,2667 L 1894,2667"/>
 <path fill="none" stroke="rgb(179,179,179)" stroke-linejoin="round" d="M 1744,1481 L 1894,1481"/>
 <path fill="none" stroke="rgb(179,179,179)" stroke-linejoin="round" d="M 1744,1481 L 1894,1481"/>
 <path fill="none" stroke="rgb(179,179,179)" stroke-linejoin="round" d="M 1744,295 L 1894,295"/>
 <path fill="none" stroke="rgb(179,179,179)" stroke-linejoin="round" d="M 1744,295 L 1894,295"/>
 <path fill="none" stroke="rgb(179,179,179)" stroke-linejoin="round" d="M 1894,8599 L 1894,295"/>
 <path fill="none" stroke="rgb(179,179,179)" stroke-linejoin="round" d="M 14819,8599 L 14669,8599"/>
 <path fill="none" stroke="rgb(179,179,179)" stroke-linejoin="round" d="M 14819,8599 L 14669,8599"/>
 <path fill="none" stroke="rgb(179,179,179)" stroke-linejoin="round" d="M 14819,7768 L 14669,7768"/>
 <path fill="none" stroke="rgb(179,179,179)" stroke-linejoin="round" d="M 14819,7768 L 14669,7768"/>
 <path fill="none" stroke="rgb(179,179,179)" stroke-linejoin="round" d="M 14819,6938 L 14669,6938"/>
 <path fill="none" stroke="rgb(179,179,179)" stroke-linejoin="round" d="M 14819,6938 L 14669,6938"/>
 <path fill="none" stroke="rgb(179,179,179)" stroke-linejoin="round" d="M 14819,6107 L 14669,6107"/>
 <path fill="none" stroke="rgb(179,179,179)" stroke-linejoin="round" d="M 14819,6107 L 14669,6107"/>
 <path fill="none" stroke="rgb(179,179,179)" stroke-linejoin="round" d="M 14819,5277 L 14669,5277"/>
 <path fill="none" stroke="rgb(179,179,179)" stroke-linejoin="round" d="M 14819,5277 L 14669,5277"/>
 <path fill="none" stroke="rgb(179,179,179)" stroke-linejoin="round" d="M 14819,4447 L 14669,4447"/>
 <path fill="none" stroke="rgb(179,179,179)" stroke-linejoin="round" d="M 14819,4447 L 14669,4447"/>
 <path fill="none" stroke="rgb(179,179,179)" stroke-linejoin="round" d="M 14819,3617 L 14669,3617"/>
 <path fill="none" stroke="rgb(179,179,179)" stroke-linejoin="round" d="M 14819,3617 L 14669,3617"/>
 <path fill="none" stroke="rgb(179,179,179)" stroke-linejoin="round" d="M 14819,2786 L 14669,2786"/>
 <path fill="none" stroke="rgb(179,179,179)" stroke-linejoin="round" d="M 14819,2786 L 14669,2786"/>
 <path fill="none" stroke="rgb(179,179,179)" stroke-linejoin="round" d="M 14819,1956 L 14669,1956"/>
 <path fill="none" stroke="rgb(179,179,179)" stroke-linejoin="round" d="M 14819,1956 L 14669,1956"/>
 <path fill="none" stroke="rgb(179,179,179)" stroke-linejoin="round" d="M 14819,1125 L 14669,1125"/>
 <path fill="none" stroke="rgb(179,179,179)" stroke-linejoin="round" d="M 14819,1125 L 14669,1125"/>
 <path fill="none" stroke="rgb(179,179,179)" stroke-linejoin="round" d="M 14819,295 L 14669,295"/>
 <path fill="none" stroke="rgb(179,179,179)" stroke-linejoin="round" d="M 14819,295 L 14669,295"/>
 <path fill="none" stroke="rgb(179,179,179)" stroke-linejoin="round" d="M 14669,8599 L 14669,295"/>
 <path fill="none" stroke="rgb(0,69,134)" stroke-width="50" stroke-linejoin="round" d="M 1894,8311 L 1911,8311 1929,8311 1946,8311 1964,8300 1981,8289 1999,8289 2016,8300 2034,8300 2051,8278 2069,8278 2086,8278 2104,8278 2121,8256 2139,8224 2156,8213 2174,8212 2191,8212 2209,8147 2226,8136 2244,8125 2261,8092 2279,8092 2296,8052 2314,8060 2331,8060 2349,8038 2366,8038 2384,8005 2401,8005 2419,7994 2436,7994 2454,7994 2471,7983 2489,7983 2506,7950 2524,7961 2541,7961 2559,7961 2576,7961 2594,7961 2611,7710 2629,7721 2646,7732 2664,7732 2681,7744 2699,7744 2716,7744 2734,7743 2751,7754 2769,7721 2786,7710 2804,7711 2821,7711 2839,7688 2856,7688 2874,7677 2891,7688 2909,7688 2926,7688 2944,7689 2961,7688 2979,7623 2996,7623 3014,7623 3031,7612 3049,7623 3066,7623 3084,7558 3101,7568 3119,7580 3136,7602 3154,7602 3171,7602 3189,7604 3206,7602 3224,7602 3241,7602 3259,7612 3276,7579 3294,7580 3311,7579 3329,7557 3346,7568 3364,7579 3381,7568 3399,7579 3416,7590 3434,7590 3451,7590 3469,7590 3486,7579 3504,7382 3521,7601 3539,7601 3556,7601 3574,7601 3591,7623 3609,7633 3626,7579 3644,7546 3661,7547 3679,7547 3696,7546 3714,7546 3731,7481 3749,7273 3766,7273 3784,7273 3801,7274 3819,7273 3836,7077 3854,7066 3871,7055 3889,7055 3906,7066 3924,7066 3941,7066 3959,7077 3976,7077 3994,7066 4011,7012 4029,7012 4046,7012 4064,7011 4081,7001 4099,7000 4116,7001 4134,6989 4151,6990 4169,6991 4186,7001 4204,6990 4221,6990 4239,7012 4256,7022 4274,7022 4291,7022 4309,7022 4326,7033 4344,6815 4361,6815 4379,6815 4396,6815 4414,6815 4431,6815 4449,6815 4466,6815 4484,6815 4501,6815 4519,6815 4536,6815 4554,6815 4571,6837 4589,6837 4606,6837 4624,6793 4641,6793 4659,6793 4676,6586 4694,6804 4711,6804 4729,6597 4746,6597 4764,6597 4781,6598 4799,6608 4816,6608 4834,6630 4851,6641 4869,6652 4886,6652 4904,6652 4921,6652 4939,6652 4956,6652 4974,6664 4991,6663 5009,6663 5026,6663 5044,6674 5061,6750 5079,6771 5096,6804 5114,6804 5131,6804 5149,6805 5166,6815 5184,6815 5201,6826 5219,6826 5236,6826 5254,6826 5271,6827 5289,6826 5306,6826 5324,6826 5341,6826 5359,6837 5376,6837 5394,6837 5411,6837 5429,6848 5446,6630 5464,6630 5481,6630 5499,6630 5516,6630 5534,6630 5551,6630 5569,6630 5586,6640 5604,6641 5621,6641 5639,6641 5656,6640 5674,6640 5691,6640 5709,6640 5726,6411 5744,6411 5761,6411 5779,6422 5796,6466 5814,6455 5831,6444 5849,6466 5866,6466 5884,6466 5901,6466 5919,6466 5936,6466 5954,6466 5971,6466 5989,6466 6006,6466 6024,6477 6041,6499 6059,6488 6076,6487 6094,6269 6111,6269 6129,6273 6146,6269 6164,6280 6181,6280 6199,6280 6216,6280 6234,6280 6251,6280 6269,6280 6286,6280 6304,6247 6321,6247 6339,6247 6356,6247 6374,6247 6391,6216 6409,6214 6426,6182 6444,6182 6461,6193 6479,6182 6496,6182 6514,6182 6531,6160 6549,6160 6566,6171 6584,6171 6601,6171 6619,6160 6636,6160 6654,6160 6671,6160 6689,6160 6706,5942 6724,5942 6741,5942 6759,5964 6776,5953 6794,5953 6811,5953 6829,5953 6846,5953 6864,5954 6881,5975 6899,5975 6916,5986 6934,5986 6951,5986 6969,5986 6986,5986 7004,5767 7021,5549 7039,5571 7056,5571 7074,5571 7091,5571 7109,5571 7126,5593 7134,8599"/>
 <path fill="none" stroke="rgb(0,69,134)" stroke-width="50" stroke-linejoin="round" d="M 7154,8599 L 7161,5582 7179,5582 7196,5593 7214,5593 7231,5614 7249,5614 7266,5603 7284,5407 7301,5407 7319,5418 7336,5418 7354,5418 7371,5418 7389,5429 7406,5461 7424,5472 7441,5461 7459,5461 7476,5461 7494,5472 7511,5254 7529,5254 7546,5254 7564,5254 7581,5254 7599,5254 7616,5036 7634,5036 7651,5036 7669,5047 7686,5036 7704,5036 7721,5036 7739,5047 7756,5036 7774,5036 7791,5057 7809,5057 7826,5047 7844,4829 7861,4828 7879,4814 7896,4814 7914,4792 7931,4585 7949,4585 7966,4585 7984,4367 8001,4850 8019,4850 8036,4850 8053,4829 8070,4829 8088,4829 8105,4426 8123,4426 8140,4437 8158,4437 8175,4437 8193,4437 8210,4437 8228,4437 8245,4437 8263,4437 8281,4437 8298,4437 8316,4422 8333,4422 8351,4433 8368,4444 8386,4444 8403,4444 8421,4444 8438,4444 8456,4444 8473,4444 8491,4444 8508,4444 8526,4433 8543,4444 8561,4444 8578,4447 8596,4444 8613,4445 8631,4455 8648,4455 8666,4236 8683,4236 8701,4236 8718,4236 8736,4247 8753,4247 8771,4237 8788,4247 8806,4247 8823,4258 8841,4247 8858,4247 8876,4247 8893,4247 8911,4247 8928,4247 8946,4247 8963,4030 8981,4040 8998,4040 9016,4040 9033,4040 9051,4040 9068,4040 9086,4040 9103,4040 9121,3739 9138,3740 9156,3521 9173,3521 9191,3521 9208,3521 9226,3488 9243,3521 9261,3303 9278,3295 9296,3292 9313,3293 9331,3314 9348,3281 9366,3281 9383,3292 9401,3303 9418,3314 9436,3314 9453,3303 9471,3314 9488,3314 9506,3303 9523,3303 9541,3303 9558,3303 9576,3303 9593,3303 9611,3325 9628,3325 9646,3314 9663,3314 9681,3314 9698,3325 9716,3121 9733,3121 9751,3121 9768,3110 9786,3110 9803,3121 9821,3121 9838,3132 9856,3154 9873,3154 9891,3154 9908,3154 9926,3154 9943,3164 9961,3164 9978,3164 9996,3164 10013,2935 10031,2935 10048,2957 10066,2957 10083,2957 10101,2954 10118,2954 10136,2943 10153,2943 10171,2943 10188,2932 10206,2946 10223,2946 10241,2728 10258,2728 10276,2728 10293,2728 10311,2728 10328,2739 10346,2772 10363,2772 10381,2761 10398,2772 10416,2772 10433,2553 10451,2553 10468,2553 10486,2586 10503,2586 10521,2553 10538,2553 10556,2553 10573,2335 10591,2335 10608,2335 10626,2313 10643,2324 10661,2324 10678,2335 10696,2335 10713,2335 10731,2357 10748,2346 10766,2346 10783,2335 10801,2379 10818,2379 10836,2368 10853,2379 10871,2390 10888,2389 10906,2390 10923,2390 10941,2182 10958,2182 10976,2291 10993,2270 11011,2291 11028,2291 11046,2291 11063,2291 11081,2204 11098,1986 11116,1997 11133,2018 11151,2008 11168,2007 11186,2018 11203,2007 11221,1898 11238,1855 11256,1855 11273,1855 11291,1855 11308,1833 11326,1811 11343,3132 11361,3121 11378,3132 11396,3143 11413,3121 11431,1385 11448,1386 11466,1374 11483,1342 11501,1374 11518,1363 11536,1363 11553,1374 11571,1353 11588,1462 11606,1178 11623,1291 11641,1269 11658,1234 11676,1211 11693,1189 11711,1189 11728,1225 11746,1236 11763,1291 11781,1233 11798,1287 11816,1298 11833,1363 11851,1473 11868,1484 11886,1476 11903,1418 11921,1440 11938,1407 11956,1407 11973,1422 11991,1447 12008,1447 12026,1403 12043,1400 12061,1560 12078,1636 12096,1713 12113,1410 12131,1413 12148,1413 12166,1402 12183,1402 12201,1211 12218,1211 12236,1211 12253,1211 12271,1210 12288,1272 12306,1330 12323,1363 12341,1404 12358,1414 12376,1415 12393,1425 12411,1505 12428,1625 12446,1636 12463,1636 12481,1625 12498,1625 12516,1625 12533,1636 12551,1636 12568,1647 12586,1636 12603,1636 12621,1636 12638,1636 12656,1636 12673,1636 12691,1636 12708,1636 12726,1636 12743,1636 12761,1636 12778,1647 12796,1647 12813,1647 12831,1647 12848,1647 12866,1647 12883,1647 12901,1632 12918,1632 12936,1647 12953,1658 12971,1658 12988,1647 13006,1647 13023,1647 13041,1647 13058,1647 13076,1647 13093,1647 13111,1647 13128,1647 13146,1647 13163,1647 13181,1357 13198,1357 13216,1368 13233,1368 13251,1383 13268,1383 13286,1383 13303,1368 13321,1368 13338,1368 13356,1368 13373,1368 13391,1368 13408,1368 13426,1368 13443,1390 13461,1402 13478,1412 13496,1401 13513,1401 13531,1401 13548,1401 13566,1390 13583,1390 13601,1390 13618,1402 13636,1401 13653,1401 13671,1401 13688,1386 13706,1387 13723,1387 13741,1376 13758,1376 13776,1376 13793,1376 13811,1086 13828,1086 13846,1086 13863,1101 13881,1101 13898,1111 13916,1111 13933,1111 13951,1111 13968,1111 13986,1111 14003,1101 14021,1101 14038,1102 14056,1101 14073,1101 14091,1101 14108,1100 14126,1111 14143,893 14161,893 14178,882 14196,882 14213,893 14231,603 14248,603 14266,605 14283,605 14301,593 14318,593 14336,593 14353,593 14371,603 14388,606 14406,595 14423,603 14441,604 14458,603 14476,603 14493,614 14511,614 14528,615 14546,614 14563,603 14581,603 14598,614 14616,615 14633,614 14651,615 14669,614"/>
 <path fill="none" stroke="rgb(255,0,0)" stroke-width="10" stroke-linejoin="round" d="M 1894,8231 L 1911,8231 1929,8231 1946,8231 1964,8225 1981,8212 1999,8199 2016,8204 2034,8204 2051,8189 2069,8189 2086,8189 2104,8188 2121,8171 2139,8145 2156,8133 2174,8133 2191,8133 2209,8081 2226,8073 2244,8071 2261,8049 2279,8049 2296,8027 2314,8026 2331,8026 2349,8011 2366,8011 2384,7989 2401,7989 2419,7981 2436,7981 2454,7981 2471,7974 2489,7974 2506,7949 2524,7955 2541,7959 2559,7959 2576,7959 2594,7959 2611,7786 2629,7788 2646,7784 2664,7784 2681,7791 2699,7791 2716,7791 2734,7790 2751,7798 2769,7776 2786,7762 2804,7762 2821,7762 2839,7745 2856,7745 2874,7747 2891,7753 2909,7753 2926,7753 2944,7754 2961,7753 2979,7697 2996,7694 3014,7694 3031,7691 3049,7693 3066,7694 3084,7656 3101,7662 3119,7662 3136,7669 3154,7656 3171,7656 3189,7657 3206,7656 3224,7656 3241,7643 3259,7650 3276,7646 3294,7646 3311,7646 3329,7631 3346,7634 3364,7636 3381,7631 3399,7631 3416,7638 3434,7638 3451,7638 3469,7638 3486,7629 3504,7423 3521,7647 3539,7647 3556,7647 3574,7641 3591,7644 3609,7649 3626,7599 3644,7586 3661,7587 3679,7587 3696,7587 3714,7587 3731,7519 3749,7294 3766,7294 3784,7294 3801,7295 3819,7294 3836,7154 3854,7152 3871,7144 3889,7142 3906,7144 3924,7144 3941,7143 3959,7146 3976,7146 3994,7147 4011,7109 4029,7109 4046,7109 4064,7109 4081,7097 4099,7097 4116,7097 4134,7096 4151,7096 4169,7097 4186,7101 4204,7100 4221,7100 4239,7113 4256,7120 4274,7120 4291,7120 4309,7120 4326,7123 4344,6973 4361,6973 4379,6971 4396,6971 4414,6971 4431,6971 4449,6969 4466,6969 4484,6969 4501,6969 4519,6969 4536,6969 4554,6969 4571,6975 4589,6975 4606,6975 4624,6951 4641,6951 4659,6951 4676,6804 4694,6954 4711,6954 4729,6806 4746,6806 4764,6806 4781,6807 4799,6809 4816,6809 4834,6819 4851,6823 4869,6825 4886,6825 4904,6825 4921,6825 4939,6825 4956,6825 4974,6833 4991,6833 5009,6833 5026,6833 5044,6831 5061,6850 5079,6856 5096,6864 5114,6864 5131,6865 5149,6865 5166,6867 5184,6867 5201,6875 5219,6875 5236,6875 5254,6875 5271,6875 5289,6875 5306,6875 5324,6875 5341,6875 5359,6878 5376,6878 5394,6878 5411,6878 5429,6880 5446,6730 5464,6730 5481,6730 5499,6730 5516,6730 5534,6730 5551,6730 5569,6730 5586,6732 5604,6732 5621,6732 5639,6732 5656,6732 5674,6732 5691,6732 5709,6732 5726,6574 5744,6574 5761,6574 5779,6577 5796,6607 5814,6598 5831,6588 5849,6601 5866,6602 5884,6602 5901,6600 5919,6600 5936,6600 5954,6598 5971,6598 5989,6598 6006,6598 6024,6604 6041,6618 6059,6611 6076,6611 6094,6459 6111,6459 6129,6460 6146,6459 6164,6464 6181,6463 6199,6465 6216,6459 6234,6459 6251,6459 6269,6459 6286,6459 6304,6438 6321,6438 6339,6438 6356,6438 6374,6438 6391,6417 6409,6416 6426,6393 6444,6393 6461,6401 6479,6393 6496,6393 6514,6393 6531,6384 6549,6384 6566,6386 6584,6386 6601,6386 6619,6378 6636,6378 6654,6378 6671,6378 6689,6378 6706,6228 6724,6229 6741,6228 6759,6242 6776,6234 6794,6234 6811,6234 6829,6234 6846,6234 6864,6235 6881,6242 6899,6242 6916,6247 6934,6247 6951,6247 6969,6247 6986,6247 7004,6101 7021,5951 7039,5964 7056,5962 7074,5962 7091,5962 7109,5962 7126,5967 7138,8599"/>
 <path fill="none" stroke="rgb(255,0,0)" stroke-width="10" stroke-linejoin="round" d="M 7150,8599 L 7161,5963 7179,5963 7196,5965 7214,5965 7231,5975 7249,5978 7266,5971 7284,5825 7301,5825 7319,5825 7336,5825 7354,5826 7371,5825 7389,5827 7406,5852 7424,5854 7441,5845 7459,5845 7476,5845 7494,5848 7511,5698 7529,5698 7546,5698 7564,5698 7581,5698 7599,5698 7616,5548 7634,5548 7651,5548 7669,5551 7686,5548 7704,5548 7721,5548 7739,5556 7756,5548 7774,5548 7791,5563 7809,5563 7826,5556 7844,5406 7861,5406 7879,5396 7896,5396 7914,5392 7931,5244 7949,5244 7966,5244 7984,5094 8001,5402 8019,5402 8036,5402 8053,5393 8070,5393 8088,5393 8105,5101 8123,5101 8140,5105 8158,5105 8175,5105 8193,5105 8210,5105 8228,5105 8245,5105 8263,5105 8281,5105 8298,5105 8316,5095 8333,5095 8351,5098 8368,5100 8386,5100 8403,5100 8421,5100 8438,5101 8456,5100 8473,5100 8491,5100 8508,5100 8526,5099 8543,5101 8561,5101 8578,5104 8596,5101 8613,5102 8631,5103 8648,5104 8666,4954 8683,4954 8701,4954 8718,4954 8736,4956 8753,4956 8771,4954 8788,4956 8806,4960 8823,4964 8841,4956 8858,4956 8876,4956 8893,4956 8911,4956 8928,4956 8946,4956 8963,4807 8981,4810 8998,4810 9016,4810 9033,4810 9051,4810 9068,4810 9086,4810 9103,4810 9121,4608 9138,4608 9156,4459 9173,4459 9191,4459 9208,4459 9226,4453 9243,4461 9261,4315 9278,4311 9296,4309 9313,4310 9331,4318 9348,4307 9366,4307 9383,4309 9401,4311 9418,4313 9436,4313 9453,4311 9471,4313 9488,4313 9506,4311 9523,4311 9541,4311 9558,4311 9576,4311 9593,4311 9611,4317 9628,4317 9646,4315 9663,4315 9681,4314 9698,4318 9716,4178 9733,4178 9751,4178 9768,4176 9786,4176 9803,4178 9821,4178 9838,4180 9856,4186 9873,4186 9891,4188 9908,4188 9926,4188 9943,4190 9961,4190 9978,4191 9996,4191 10013,4040 10031,4040 10048,4045 10066,4045 10083,4045 10101,4045 10118,4045 10136,4042 10153,4042 10171,4042 10188,4039 10206,4041 10223,4041 10241,3891 10258,3891 10276,3891 10293,3891 10311,3891 10328,3897 10346,3909 10363,3909 10381,3907 10398,3909 10416,3909 10433,3759 10451,3759 10468,3759 10486,3770 10503,3770 10521,3759 10538,3759 10556,3759 10573,3599 10591,3599 10608,3604 10626,3593 10643,3604 10661,3604 10678,3606 10696,3606 10713,3606 10731,3613 10748,3606 10766,3606 10783,3602 10801,3621 10818,3621 10836,3613 10853,3617 10871,3621 10888,3621 10906,3621 10923,3621 10941,3325 10958,3325 10976,3422 10993,3417 11011,3422 11028,3422 11046,3422 11063,3415 11081,3332 11098,3183 11116,3186 11133,3194 11151,3190 11168,3190 11186,3194 11203,3190 11221,3123 11238,3089 11256,3089 11273,3089 11291,3089 11308,3074 11326,3048 11343,3813 11361,3798 11378,3813 11396,3828 11413,3798 11431,2456 11448,2456 11466,2449 11483,2439 11501,2449 11518,2447 11536,2447 11553,2454 11571,2443 11588,2509 11606,2314 11623,2391 11641,2376 11658,2352 11676,2344 11693,2318 11711,2321 11728,2350 11746,2350 11763,2395 11781,2359 11798,2400 11816,2401 11833,2431 11851,2505 11868,2516 11886,2511 11903,2467 11921,2471 11938,2447 11956,2421 11973,2420 11991,2441 12008,2441 12026,2406 12043,2403 12061,2513 12078,2540 12096,2566 12113,2165 12131,2165 12148,2165 12166,2163 12183,2163 12201,1798 12218,1798 12236,1798 12253,1798 12271,1798 12288,1818 12306,1837 12323,1848 12341,1863 12358,1866 12376,1867 12393,1870 12411,1895 12428,1936 12446,1940 12463,1940 12481,1937 12498,1937 12516,1938 12533,1942 12551,1942 12568,1944 12586,1940 12603,1940 12621,1940 12638,1940 12656,1940 12673,1940 12691,1940 12708,1940 12726,1940 12743,1940 12761,1940 12778,1944 12796,1944 12813,1944 12831,1944 12848,1944 12866,1944 12883,1944 12901,1939 12918,1939 12936,1944 12953,1947 12971,1947 12988,1944 13006,1944 13023,1944 13041,1944 13058,1944 13076,1944 13093,1944 13111,1944 13128,1944 13146,1944 13163,1944 13181,1545 13198,1545 13216,1548 13233,1548 13251,1568 13268,1568 13286,1568 13303,1548 13321,1548 13338,1548 13356,1548 13373,1548 13391,1548 13408,1548 13426,1548 13443,1556 13461,1560 13478,1567 13496,1560 13513,1560 13531,1560 13548,1560 13566,1556 13583,1556 13601,1556 13618,1561 13636,1560 13653,1560 13671,1560 13688,1557 13706,1557 13723,1557 13741,1550 13758,1550 13776,1550 13793,1550 13811,1151 13828,1151 13846,1151 13863,1153 13881,1153 13898,1160 13916,1160 13933,1160 13951,1160 13968,1160 13986,1160 14003,1157 14021,1157 14038,1157 14056,1157 14073,1157 14091,1157 14108,1157 14126,1160 14143,1010 14161,1011 14178,1007 14196,1007 14213,1010 14231,617 14248,621 14266,621 14283,621 14301,613 14318,613 14336,613 14353,613 14371,615 14388,616 14406,614 14423,615 14441,615 14458,615 14476,615 14493,619 14511,619 14528,619 14546,619 14563,617 14581,617 14598,624 14616,625 14633,624 14651,625 14669,624"/>
 <text class="TextShape"><tspan class="TextParagraph" font-family="Liberation Sans, sans-serif" font-size="353px" font-weight="400"><tspan class="TextPosition" x="718" y="8719"><tspan fill="rgb(0,0,0)" stroke="none">40000</tspan></tspan></tspan></text>
 <text class="TextShape"><tspan class="TextParagraph" font-family="Liberation Sans, sans-serif" font-size="353px" font-weight="400"><tspan class="TextPosition" x="718" y="7532"><tspan fill="rgb(0,0,0)" stroke="none">45000</tspan></tspan></tspan></text>
 <text class="TextShape"><tspan class="TextParagraph" font-family="Liberation Sans, sans-serif" font-size="353px" font-weight="400"><tspan class="TextPosition" x="718" y="6346"><tspan fill="rgb(0,0,0)" stroke="none">50000</tspan></tspan></tspan></text>
 <text class="TextShape"><tspan class="TextParagraph" font-family="Liberation Sans, sans-serif" font-size="353px" font-weight="400"><tspan class="TextPosition" x="718" y="5159"><tspan fill="rgb(0,0,0)" stroke="none">55000</tspan></tspan></tspan></text>
 <text class="TextShape"><tspan class="TextParagraph" font-family="Liberation Sans, sans-serif" font-size="353px" font-weight="400"><tspan class="TextPosition" x="718" y="3973"><tspan fill="rgb(0,0,0)" stroke="none">60000</tspan></tspan></tspan></text>
 <text class="TextShape"><tspan class="TextParagraph" font-family="Liberation Sans, sans-serif" font-size="353px" font-weight="400"><tspan class="TextPosition" x="718" y="2786"><tspan fill="rgb(0,0,0)" stroke="none">65000</tspan></tspan></tspan></text>
 <text class="TextShape"><tspan class="TextParagraph" font-family="Liberation Sans, sans-serif" font-size="353px" font-weight="400"><tspan class="TextPosition" x="718" y="1600"><tspan fill="rgb(0,0,0)" stroke="none">70000</tspan></tspan></tspan></text>
 <text class="TextShape"><tspan class="TextParagraph" font-family="Liberation Sans, sans-serif" font-size="353px" font-weight="400"><tspan class="TextPosition" x="718" y="414"><tspan fill="rgb(0,0,0)" stroke="none">75000</tspan></tspan></tspan></text>
 <text class="TextShape"><tspan class="TextParagraph" font-family="Liberation Sans, sans-serif" font-size="353px" font-weight="400"><tspan class="TextPosition" x="14919" y="8719"><tspan fill="rgb(0,0,0)" stroke="none">130</tspan></tspan></tspan></text>
 <text class="TextShape"><tspan class="TextParagraph" font-family="Liberation Sans, sans-serif" font-size="353px" font-weight="400"><tspan class="TextPosition" x="14919" y="7888"><tspan fill="rgb(0,0,0)" stroke="none">150</tspan></tspan></tspan></text>
 <text class="TextShape"><tspan class="TextParagraph" font-family="Liberation Sans, sans-serif" font-size="353px" font-weight="400"><tspan class="TextPosition" x="14919" y="7058"><tspan fill="rgb(0,0,0)" stroke="none">170</tspan></tspan></tspan></text>
 <text class="TextShape"><tspan class="TextParagraph" font-family="Liberation Sans, sans-serif" font-size="353px" font-weight="400"><tspan class="TextPosition" x="14919" y="6227"><tspan fill="rgb(0,0,0)" stroke="none">190</tspan></tspan></tspan></text>
 <text class="TextShape"><tspan class="TextParagraph" font-family="Liberation Sans, sans-serif" font-size="353px" font-weight="400"><tspan class="TextPosition" x="14919" y="5397"><tspan fill="rgb(0,0,0)" stroke="none">210</tspan></tspan></tspan></text>
 <text class="TextShape"><tspan class="TextParagraph" font-family="Liberation Sans, sans-serif" font-size="353px" font-weight="400"><tspan class="TextPosition" x="14919" y="4566"><tspan fill="rgb(0,0,0)" stroke="none">230</tspan></tspan></tspan></text>
 <text class="TextShape"><tspan class="TextParagraph" font-family="Liberation Sans, sans-serif" font-size="353px" font-weight="400"><tspan class="TextPosition" x="14919" y="3736"><tspan fill="rgb(0,0,0)" stroke="none">250</tspan></tspan></tspan></text>
 <text class="TextShape"><tspan class="TextParagraph" font-family="Liberation Sans, sans-serif" font-size="353px" font-weight="400"><tspan class="TextPosition" x="14919" y="2905"><tspan fill="rgb(0,0,0)" stroke="none">270</tspan></tspan></tspan></text>
 <text class="TextShape"><tspan class="TextParagraph" font-family="Liberation Sans, sans-serif" font-size="353px" font-weight="400"><tspan class="TextPosition" x="14919" y="2075"><tspan fill="rgb(0,0,0)" stroke="none">290</tspan></tspan></tspan></text>
 <text class="TextShape"><tspan class="TextParagraph" font-family="Liberation Sans, sans-serif" font-size="353px" font-weight="400"><tspan class="TextPosition" x="14919" y="1244"><tspan fill="rgb(0,0,0)" stroke="none">310</tspan></tspan></tspan></text>
 <text class="TextShape"><tspan class="TextParagraph" font-family="Liberation Sans, sans-serif" font-size="353px" font-weight="400"><tspan class="TextPosition" x="14919" y="414"><tspan fill="rgb(0,0,0)" stroke="none">330</tspan></tspan></tspan></text>
 <path fill="none" stroke="rgb(0,69,134)" stroke-width="50" stroke-linejoin="round" d="M 2678,1018 L 3478,1018"/>
 <path fill="none" stroke="rgb(255,0,0)" stroke-width="10" stroke-linejoin="round" d="M 5392,1018 L 6192,1018"/>
 <text class="TextShape"><tspan class="TextParagraph" font-family="Liberation Sans, sans-serif" font-size="353px" font-weight="400"><tspan class="TextPosition" x="3578" y="1137"><tspan fill="rgb(0,0,0)" stroke="none">count</tspan></tspan></tspan></text>
 <text class="TextShape"><tspan class="TextParagraph" font-family="Liberation Sans, sans-serif" font-size="353px" font-weight="400"><tspan class="TextPosition" x="6292" y="1137"><tspan fill="rgb(0,0,0)" stroke="none">Tot_Capacity [Pbytes]</tspan></tspan></tspan></text>
 <text class="TextShape" transform="translate(405,5809) rotate(-90) translate(-405,-5809)"><tspan class="TextParagraph" font-family="Liberation Sans, sans-serif" font-size="318px" font-weight="400"><tspan class="TextPosition" x="405" y="5809"><tspan fill="rgb(0,0,0)" stroke="none">Drive count [units]</tspan></tspan></tspan></text>
 <text class="TextShape" transform="translate(15895,5466) rotate(-90) translate(-15895,-5466)"><tspan class="TextParagraph" font-family="Liberation Sans, sans-serif" font-size="318px" font-weight="400"><tspan class="TextPosition" x="15895" y="5466"><tspan fill="rgb(0,0,0)" stroke="none">Capacity [Pb]</tspan></tspan></tspan></text>
</svg>