<?xml version="1.0" encoding="UTF-8"?>
<!DOCTYPE svg PUBLIC "-//W3C//DTD SVG 1.1//EN" "http://www.w3.org/Graphics/SVG/1.1/DTD/svg11.dtd">
<svg width="160mm" height="90mm" viewBox="0 0 16000 9000" version="1.1" xmlns="http://www.w3.org/2000/svg" stroke-width="28.222" stroke-linejoin="round" xml:space="preserve">
 <path fill="rgb(255,255,255)" stroke="none" d="M 8045,8999 L 45,8999 45,0 16044,0 16044,8999 8045,8999 Z"/>
 <path fill="none" stroke="rgb(179,179,179)" stroke-linejoin="round" d="M 8281,8600 L 1894,8600 1894,296 14669,296 14669,8600 8281,8600 Z"/>
 <path fill="none" stroke="rgb(179,179,179)" stroke-linejoin="round" d="M 14669,8599 L 1894,8599"/>
 <path fill="none" stroke="rgb(179,179,179)" stroke-linejoin="round" d="M 14669,7621 L 1894,7621"/>
 <path fill="none" stroke="rgb(179,179,179)" stroke-linejoin="round" d="M 14669,6644 L 1894,6644"/>
 <path fill="none" stroke="rgb(179,179,179)" stroke-linejoin="round" d="M 14669,5667 L 1894,5667"/>
 <path fill="none" stroke="rgb(179,179,179)" stroke-linejoin="round" d="M 14669,4690 L 1894,4690"/>
 <path fill="none" stroke="rgb(179,179,179)" stroke-linejoin="round" d="M 14669,3714 L 1894,3714"/>
 <path fill="none" stroke="rgb(179,179,179)" stroke-linejoin="round" d="M 14669,2737 L 1894,2737"/>
 <path fill="none" stroke="rgb(179,179,179)" stroke-linejoin="round" d="M 14669,1760 L 1894,1760"/>
 <path fill="none" stroke="rgb(179,179,179)" stroke-linejoin="round" d="M 14669,783 L 1894,783"/>
 <path fill="none" stroke="rgb(179,179,179)" stroke-linejoin="round" d="M 1744,8599 L 1894,8599"/>
 <path fill="none" stroke="rgb(179,179,179)" stroke-linejoin="round" d="M 1744,8599 L 1894,8599"/>
 <path fill="none" stroke="rgb(179,179,179)" stroke-linejoin="round" d="M 1744,7621 L 1894,7621"/>
 <path fill="none" stroke="rgb(179,179,179)" stroke-linejoin="round" d="M 1744,7621 L 1894,7621"/>
 <path fill="none" stroke="rgb(179,179,179)" stroke-linejoin="round" d="M 1744,6644 L 1894,6644"/>
 <path fill="none" stroke="rgb(179,179,179)" stroke-linejoin="round" d="M 1744,6644 L 1894,6644"/>
 <path fill="none" stroke="rgb(179,179,179)" stroke-linejoin="round" d="M 1744,5667 L 1894,5667"/>
 <path fill="none" stroke="rgb(179,179,179)" stroke-linejoin="round" d="M 1744,5667 L 1894,5667"/>
 <path fill="none" stroke="rgb(179,179,179)" stroke-linejoin="round" d="M 1744,4690 L 1894,4690"/>
 <path fill="none" stroke="rgb(179,179,179)" stroke-linejoin="round" d="M 1744,4690 L 1894,4690"/>
 <path fill="none" stroke="rgb(179,179,179)" stroke-linejoin="round" d="M 1744,3714 L 1894,3714"/>
 <path fill="none" stroke="rgb(179,179,179)" stroke-linejoin="round" d="M 1744,3714 L 1894,3714"/>
 <path fill="none" stroke="rgb(179,179,179)" stroke-linejoin="round" d="M 1744,2737 L 1894,2737"/>
 <path fill="none" stroke="rgb(179,179,179)" stroke-linejoin="round" d="M 1744,2737 L 1894,2737"/>
 <path fill="none" stroke="rgb(179,179,179)" stroke-linejoin="round" d="M 1744,1760 L 1894,1760"/>
 <path fill="none" stroke="rgb(179,179,179)" stroke-linejoin="round" d="M 1744,1760 L 1894,1760"/>
 <path fill="none" stroke="rgb(179,179,179)" stroke-linejoin="round" d="M 1744,783 L 1894,783"/>
 <path fill="none" stroke="rgb(179,179,179)" stroke-linejoin="round" d="M 1744,783 L 1894,783"/>
 <path fill="none" stroke="rgb(179,179,179)" stroke-linejoin="round" d="M 1894,8599 L 1894,295"/>
 <path fill="none" stroke="rgb(179,179,179)" stroke-linejoin="round" d="M 14819,8599 L 14669,8599"/>
 <path fill="none" stroke="rgb(179,179,179)" stroke-linejoin="round" d="M 14819,8599 L 14669,8599"/>
 <path fill="none" stroke="rgb(179,179,179)" stroke-linejoin="round" d="M 14819,7154 L 14669,7154"/>
 <path fill="none" stroke="rgb(179,179,179)" stroke-linejoin="round" d="M 14819,7154 L 14669,7154"/>
 <path fill="none" stroke="rgb(179,179,179)" stroke-linejoin="round" d="M 14819,5710 L 14669,5710"/>
 <path fill="none" stroke="rgb(179,179,179)" stroke-linejoin="round" d="M 14819,5710 L 14669,5710"/>
 <path fill="none" stroke="rgb(179,179,179)" stroke-linejoin="round" d="M 14819,4266 L 14669,4266"/>
 <path fill="none" stroke="rgb(179,179,179)" stroke-linejoin="round" d="M 14819,4266 L 14669,4266"/>
 <path fill="none" stroke="rgb(179,179,179)" stroke-linejoin="round" d="M 14819,2822 L 14669,2822"/>
 <path fill="none" stroke="rgb(179,179,179)" stroke-linejoin="round" d="M 14819,2822 L 14669,2822"/>
 <path fill="none" stroke="rgb(179,179,179)" stroke-linejoin="round" d="M 14819,1378 L 14669,1378"/>
 <path fill="none" stroke="rgb(179,179,179)" stroke-linejoin="round" d="M 14819,1378 L 14669,1378"/>
 <path fill="none" stroke="rgb(179,179,179)" stroke-linejoin="round" d="M 14669,8599 L 14669,295"/>
 <path fill="none" stroke="rgb(0,69,134)" stroke-width="50" stroke-linejoin="round" d="M 1894,8333 L 1929,8333 1964,8303 1999,8303 2034,8325 2069,8347 2104,8347 2139,8347 2174,8347 2209,8348 2244,8347 2279,8347 2314,8347 2349,8347 2384,8325 2419,8347 2454,8348 2489,8355 2524,8347 2559,8350 2594,8370 2629,8370 2664,7920 2699,7920 2734,7920 2769,7920 2804,7943 2839,7943 2874,7921 2909,7943 2944,7943 2979,7965 3014,7942 3049,7943 3084,7943 3119,7943 3154,7943 3189,7943 3224,7943 3259,7496 3294,7516 3329,7516 3364,7516 3399,7516 3434,7516 3469,7516 3504,7516 3539,7516 3574,6897 3609,6898 3644,6448 3679,6448 3714,6448 3749,6448 3784,6381 3819,6448 3854,5999 3889,5983 3924,5976 3959,5979 3994,6021 4029,5954 4064,5954 4099,5976 4134,5999 4169,6022 4204,6022 4239,5999 4274,6022 4309,6021 4344,5999 4379,5999 4414,5999 4449,5999 4484,5999 4519,5999 4554,6043 4589,6043 4624,6021 4659,6021 4694,6021 4729,6043 4764,5624 4799,5624 4834,5624 4869,5602 4904,5601 4939,5624 4974,5624 5009,5646 5044,5691 5079,5691 5114,5691 5149,5691 5184,5691 5219,5714 5254,5714 5289,5714 5324,5714 5359,5242 5394,5242 5429,5287 5464,5287 5499,5287 5534,5279 5569,5279 5604,5257 5639,5257 5674,5257 5709,5234 5744,5264 5779,5265 5814,4815 5849,4815 5884,4815 5919,4815 5954,4815 5989,4838 6024,4905 6059,4905 6094,4882 6129,4905 6164,4905 6199,4456 6234,4456 6269,4456 6304,4523 6339,4523 6374,4456 6409,4456 6444,4456 6479,4007 6514,4007 6549,4007 6584,3962 6619,3985 6654,3984 6689,4007 6724,4007 6759,4007 6794,4052 6829,4029 6864,4029 6899,4007 6934,4097 6969,4097 7004,4074 7039,4097 7074,4120 7109,4119 7144,4120 7179,4120 7214,3692 7249,3692 7284,3917 7319,3872 7354,3917 7389,3917 7424,3917 7459,3917 7494,3737 7529,3288 7564,3310 7599,3355 7634,3333 7669,3333 7704,3355 7739,3333 7774,3108 7809,3019 7844,3018 7879,3018 7914,3018 7949,2973 7984,2928 8019,5646 8053,5624 8088,5646 8123,5669 8158,5624 8193,2052 8228,2052 8263,2029 8298,1962 8333,2029 8368,2007 8403,2007 8438,2029 8473,1984 8508,2209 8543,1625 8578,1857 8613,1812 8648,1740 8683,1692 8718,1648 8753,1648 8788,1722 8823,1744 8858,1857 8893,1738 8928,1849 8963,1872 8998,2007 9033,2232 9068,2254 9103,2239 9138,2119 9173,2164 9208,2097 9243,2097 9278,2126 9313,2179 9348,2179 9383,2089 9418,2082 9453,2411 9488,2569 9523,2726 9558,2104 9593,2108 9628,2108 9663,2086 9698,2086 9733,1692 9768,1692 9803,1692 9838,1693 9873,1692 9908,1819 9943,1938 9978,2006 10013,2089 10048,2112 10083,2113 10118,2134 10153,2298 10188,2546 10223,2568 10258,2568 10293,2546 10328,2546 10363,2546 10398,2568 10433,2568 10468,2590 10503,2568 10538,2568 10573,2568 10608,2568 10643,2568 10678,2568 10713,2568 10748,2568 10783,2568 10818,2568 10853,2568 10888,2590 10923,2591 10958,2590 10993,2590 11028,2590 11063,2590 11098,2590 11133,2560 11168,2560 11203,2590 11238,2613 11273,2613 11308,2590 11343,2590 11378,2590 11413,2590 11448,2590 11483,2590 11518,2590 11553,2590 11588,2590 11623,2590 11658,2590 11693,1994 11728,1994 11763,2017 11798,2017 11833,2046 11868,2047 11903,2046 11938,2017 11973,2017 12008,2017 12043,2017 12078,2017 12113,2017 12148,2017 12183,2017 12218,2062 12253,2085 12288,2107 12323,2084 12358,2084 12393,2084 12428,2084 12463,2062 12498,2062 12533,2062 12568,2086 12603,2084 12638,2084 12673,2084 12708,2054 12743,2055 12778,2055 12813,2032 12848,2032 12883,2032 12918,2032 12953,1436 12988,1436 13023,1436 13058,1466 13093,1466 13128,1488 13163,1488 13198,1488 13233,1488 13268,1488 13303,1488 13338,1467 13373,1467 13408,1467 13443,1467 13478,1467 13513,1467 13548,1465 13583,1487 13618,1038 13653,1039 13688,1016 13723,1016 13758,1038 13793,442 13828,442 13863,444 13898,445 13933,420 13968,420 14003,420 14038,420 14073,442 14108,447 14143,424 14178,442 14213,443 14248,442 14283,442 14318,465 14353,465 14388,465 14423,465 14458,442 14493,442 14528,465 14563,465 14598,465 14633,465 14669,465"/>
 <path fill="none" stroke="rgb(255,66,14)" stroke-width="20" stroke-linejoin="round" d="M 1894,8300 L 1929,8300 1964,8283 1999,8283 2034,8287 2069,8292 2104,8292 2139,8292 2174,8292 2209,8293 2244,8292 2279,8292 2314,8292 2349,8292 2384,8289 2419,8294 2454,8294 2489,8298 2524,8294 2559,8294 2594,8297 2629,8299 2664,8038 2699,8038 2734,8038 2769,8038 2804,8041 2839,8041 2874,8038 2909,8041 2944,8048 2979,8054 3014,8041 3049,8041 3084,8041 3119,8041 3154,8041 3189,8041 3224,8041 3259,7782 3294,7787 3329,7787 3364,7787 3399,7787 3434,7787 3469,7787 3504,7787 3539,7787 3574,7436 3609,7436 3644,7175 3679,7175 3714,7175 3749,7175 3784,7165 3819,7178 3854,6924 3889,6918 3924,6914 3959,6916 3994,6931 4029,6911 4064,6911 4099,6914 4134,6918 4169,6921 4204,6921 4239,6918 4274,6921 4309,6921 4344,6917 4379,6917 4414,6917 4449,6917 4484,6917 4519,6917 4554,6929 4589,6929 4624,6924 4659,6924 4694,6924 4729,6930 4764,6687 4799,6687 4834,6687 4869,6684 4904,6683 4939,6686 4974,6686 5009,6690 5044,6700 5079,6700 5114,6703 5149,6703 5184,6703 5219,6706 5254,6706 5289,6710 5324,6710 5359,6446 5394,6446 5429,6455 5464,6455 5499,6455 5534,6454 5569,6454 5604,6450 5639,6450 5674,6450 5709,6444 5744,6448 5779,6449 5814,6188 5849,6188 5884,6188 5919,6188 5954,6187 5989,6198 6024,6219 6059,6219 6094,6215 6129,6219 6164,6219 6199,5958 6234,5958 6269,5958 6304,5978 6339,5978 6374,5958 6409,5958 6444,5958 6479,5679 6514,5679 6549,5689 6584,5669 6619,5688 6654,5688 6689,5691 6724,5691 6759,5691 6794,5704 6829,5691 6864,5691 6899,5685 6934,5717 6969,5718 7004,5704 7039,5711 7074,5718 7109,5717 7144,5718 7179,5718 7214,5203 7249,5203 7284,5372 7319,5363 7354,5372 7389,5372 7424,5372 7459,5359 7494,5216 7529,4955 7564,4962 7599,4975 7634,4968 7669,4968 7704,4975 7739,4968 7774,4851 7809,4793 7844,4792 7879,4792 7914,4792 7949,4766 7984,4720 8019,6051 8053,6025 8088,6051 8123,6077 8158,6025 8193,3693 8228,3693 8263,3680 8298,3664 8333,3680 8368,3677 8403,3677 8438,3690 8473,3670 8508,3784 8543,3445 8578,3580 8613,3554 8648,3512 8683,3497 8718,3452 8753,3459 8788,3508 8823,3508 8858,3586 8893,3524 8928,3595 8963,3597 8998,3649 9033,3778 9068,3797 9103,3788 9138,3712 9173,3719 9208,3677 9243,3631 9278,3630 9313,3667 9348,3667 9383,3605 9418,3601 9453,3792 9488,3838 9523,3884 9558,3186 9593,3187 9628,3187 9663,3183 9698,3183 9733,2548 9768,2548 9803,2548 9838,2548 9873,2548 9908,2582 9943,2616 9978,2635 10013,2661 10048,2667 10083,2668 10118,2674 10153,2717 10188,2788 10223,2796 10258,2796 10293,2790 10328,2790 10363,2793 10398,2798 10433,2798 10468,2802 10503,2795 10538,2795 10573,2795 10608,2795 10643,2795 10678,2795 10713,2795 10748,2795 10783,2795 10818,2795 10853,2795 10888,2802 10923,2802 10958,2802 10993,2802 11028,2802 11063,2802 11098,2802 11133,2793 11168,2793 11203,2802 11238,2807 11273,2807 11308,2802 11343,2802 11378,2802 11413,2802 11448,2802 11483,2802 11518,2802 11553,2802 11588,2802 11623,2802 11658,2802 11693,2108 11728,2108 11763,2113 11798,2113 11833,2147 11868,2148 11903,2147 11938,2113 11973,2113 12008,2113 12043,2113 12078,2113 12113,2113 12148,2113 12183,2113 12218,2127 12253,2135 12288,2147 12323,2134 12358,2134 12393,2134 12428,2134 12463,2127 12498,2127 12533,2127 12568,2136 12603,2134 12638,2134 12673,2134 12708,2129 12743,2130 12778,2130 12813,2116 12848,2117 12883,2116 12918,2116 12953,1422 12988,1422 13023,1422 13058,1426 13093,1426 13128,1439 13163,1439 13198,1439 13233,1439 13268,1439 13303,1439 13338,1433 13373,1433 13408,1434 13443,1433 13478,1433 13513,1433 13548,1433 13583,1439 13618,1178 13653,1179 13688,1172 13723,1172 13758,1178 13793,494 13828,501 13863,501 13898,502 13933,488 13968,488 14003,488 14038,488 14073,491 14108,492 14143,489 14178,491 14213,491 14248,491 14283,491 14318,497 14353,497 14388,498 14423,497 14458,494 14493,494 14528,507 14563,507 14598,507 14633,507 14669,507"/>
 <text class="TextShape"><tspan class="TextParagraph" font-family="Liberation Sans, sans-serif" font-size="353px" font-weight="400"><tspan class="TextPosition" x="718" y="8719"><tspan fill="rgb(0,0,0)" stroke="none">57000</tspan></tspan></tspan></text>
 <text class="TextShape"><tspan class="TextParagraph" font-family="Liberation Sans, sans-serif" font-size="353px" font-weight="400"><tspan class="TextPosition" x="718" y="7741"><tspan fill="rgb(0,0,0)" stroke="none">59000</tspan></tspan></tspan></text>
 <text class="TextShape"><tspan class="TextParagraph" font-family="Liberation Sans, sans-serif" font-size="353px" font-weight="400"><tspan class="TextPosition" x="718" y="6764"><tspan fill="rgb(0,0,0)" stroke="none">61000</tspan></tspan></tspan></text>
 <text class="TextShape"><tspan class="TextParagraph" font-family="Liberation Sans, sans-serif" font-size="353px" font-weight="400"><tspan class="TextPosition" x="718" y="5787"><tspan fill="rgb(0,0,0)" stroke="none">63000</tspan></tspan></tspan></text>
 <text class="TextShape"><tspan class="TextParagraph" font-family="Liberation Sans, sans-serif" font-size="353px" font-weight="400"><tspan class="TextPosition" x="718" y="4810"><tspan fill="rgb(0,0,0)" stroke="none">65000</tspan></tspan></tspan></text>
 <text class="TextShape"><tspan class="TextParagraph" font-family="Liberation Sans, sans-serif" font-size="353px" font-weight="400"><tspan class="TextPosition" x="718" y="3833"><tspan fill="rgb(0,0,0)" stroke="none">67000</tspan></tspan></tspan></text>
 <text class="TextShape"><tspan class="TextParagraph" font-family="Liberation Sans, sans-serif" font-size="353px" font-weight="400"><tspan class="TextPosition" x="718" y="2856"><tspan fill="rgb(0,0,0)" stroke="none">69000</tspan></tspan></tspan></text>
 <text class="TextShape"><tspan class="TextParagraph" font-family="Liberation Sans, sans-serif" font-size="353px" font-weight="400"><tspan class="TextPosition" x="718" y="1879"><tspan fill="rgb(0,0,0)" stroke="none">71000</tspan></tspan></tspan></text>
 <text class="TextShape"><tspan class="TextParagraph" font-family="Liberation Sans, sans-serif" font-size="353px" font-weight="400"><tspan class="TextPosition" x="718" y="902"><tspan fill="rgb(0,0,0)" stroke="none">73000</tspan></tspan></tspan></text>
 <text class="TextShape"><tspan class="TextParagraph" font-family="Liberation Sans, sans-serif" font-size="353px" font-weight="400"><tspan class="TextPosition" x="14919" y="8719"><tspan fill="rgb(0,0,0)" stroke="none">210</tspan></tspan></tspan></text>
 <text class="TextShape"><tspan class="TextParagraph" font-family="Liberation Sans, sans-serif" font-size="353px" font-weight="400"><tspan class="TextPosition" x="14919" y="7274"><tspan fill="rgb(0,0,0)" stroke="none">230</tspan></tspan></tspan></text>
 <text class="TextShape"><tspan class="TextParagraph" font-family="Liberation Sans, sans-serif" font-size="353px" font-weight="400"><tspan class="TextPosition" x="14919" y="5830"><tspan fill="rgb(0,0,0)" stroke="none">250</tspan></tspan></tspan></text>
 <text class="TextShape"><tspan class="TextParagraph" font-family="Liberation Sans, sans-serif" font-size="353px" font-weight="400"><tspan class="TextPosition" x="14919" y="4385"><tspan fill="rgb(0,0,0)" stroke="none">270</tspan></tspan></tspan></text>
 <text class="TextShape"><tspan class="TextParagraph" font-family="Liberation Sans, sans-serif" font-size="353px" font-weight="400"><tspan class="TextPosition" x="14919" y="2941"><tspan fill="rgb(0,0,0)" stroke="none">290</tspan></tspan></tspan></text>
 <text class="TextShape"><tspan class="TextParagraph" font-family="Liberation Sans, sans-serif" font-size="353px" font-weight="400"><tspan class="TextPosition" x="14919" y="1497"><tspan fill="rgb(0,0,0)" stroke="none">310</tspan></tspan></tspan></text>
 <path fill="none" stroke="rgb(0,69,134)" stroke-width="50" stroke-linejoin="round" d="M 9541,7219 L 10341,7219"/>
 <path fill="none" stroke="rgb(255,66,14)" stroke-width="20" stroke-linejoin="round" d="M 9541,7994 L 10341,7994"/>
 <text class="TextShape"><tspan class="TextParagraph" font-family="Liberation Sans, sans-serif" font-size="353px" font-weight="400"><tspan class="TextPosition" x="10441" y="7338"><tspan fill="rgb(0,0,0)" stroke="none">count</tspan></tspan></tspan></text>
 <text class="TextShape"><tspan class="TextParagraph" font-family="Liberation Sans, sans-serif" font-size="353px" font-weight="400"><tspan class="TextPosition" x="10441" y="8113"><tspan fill="rgb(0,0,0)" stroke="none">Tot_Capacity [Pbytes]</tspan></tspan></tspan></text>
 <text class="TextShape" transform="translate(405,5811) rotate(-90) translate(-405,-5811)"><tspan class="TextParagraph" font-family="Liberation Sans, sans-serif" font-size="318px" font-weight="400"><tspan class="TextPosition" x="405" y="5811"><tspan fill="rgb(0,0,0)" stroke="none">Drive count [units]</tspan></tspan></tspan></text>
 <text class="TextShape" transform="translate(15895,5466) rotate(-90) translate(-15895,-5466)"><tspan class="TextParagraph" font-family="Liberation Sans, sans-serif" font-size="318px" font-weight="400"><tspan class="TextPosition" x="15895" y="5466"><tspan fill="rgb(0,0,0)" stroke="none">Capacity [Pb]</tspan></tspan></tspan></text>
</svg>