<?xml version="1.0" encoding="UTF-8"?>
<!DOCTYPE svg PUBLIC "-//W3C//DTD SVG 1.1//EN" "http://www.w3.org/Graphics/SVG/1.1/DTD/svg11.dtd">
<svg width="160mm" height="90mm" viewBox="0 0 16000 9000" version="1.1" xmlns="http://www.w3.org/2000/svg" stroke-width="28.222" stroke-linejoin="round" xml:space="preserve">
 <path fill="rgb(255,255,255)" stroke="none" d="M 8000,8999 L 0,8999 0,0 15999,0 15999,8999 8000,8999 Z"/>
 <path fill="none" stroke="rgb(179,179,179)" stroke-linejoin="round" d="M 8236,8600 L 1849,8600 1849,296 14624,296 14624,8600 8236,8600 Z"/>
 <path fill="none" stroke="rgb(179,179,179)" stroke-linejoin="round" d="M 14624,8599 L 1849,8599"/>
 <path fill="none" stroke="rgb(179,179,179)" stroke-linejoin="round" d="M 14624,7696 L 1849,7696"/>
 <path fill="none" stroke="rgb(179,179,179)" stroke-linejoin="round" d="M 14624,6793 L 1849,6793"/>
 <path fill="none" stroke="rgb(179,179,179)" stroke-linejoin="round" d="M 14624,5890 L 1849,5890"/>
 <path fill="none" stroke="rgb(179,179,179)" stroke-linejoin="round" d="M 14624,4988 L 1849,4988"/>
 <path fill="none" stroke="rgb(179,179,179)" stroke-linejoin="round" d="M 14624,4086 L 1849,4086"/>
 <path fill="none" stroke="rgb(179,179,179)" stroke-linejoin="round" d="M 14624,3183 L 1849,3183"/>
 <path fill="none" stroke="rgb(179,179,179)" stroke-linejoin="round" d="M 14624,2280 L 1849,2280"/>
 <path fill="none" stroke="rgb(179,179,179)" stroke-linejoin="round" d="M 14624,1378 L 1849,1378"/>
 <path fill="none" stroke="rgb(179,179,179)" stroke-linejoin="round" d="M 14624,475 L 1849,475"/>
 <path fill="none" stroke="rgb(179,179,179)" stroke-linejoin="round" d="M 1699,8599 L 1849,8599"/>
 <path fill="none" stroke="rgb(179,179,179)" stroke-linejoin="round" d="M 1699,8599 L 1849,8599"/>
 <path fill="none" stroke="rgb(179,179,179)" stroke-linejoin="round" d="M 1699,7696 L 1849,7696"/>
 <path fill="none" stroke="rgb(179,179,179)" stroke-linejoin="round" d="M 1699,7696 L 1849,7696"/>
 <path fill="none" stroke="rgb(179,179,179)" stroke-linejoin="round" d="M 1699,6793 L 1849,6793"/>
 <path fill="none" stroke="rgb(179,179,179)" stroke-linejoin="round" d="M 1699,6793 L 1849,6793"/>
 <path fill="none" stroke="rgb(179,179,179)" stroke-linejoin="round" d="M 1699,5890 L 1849,5890"/>
 <path fill="none" stroke="rgb(179,179,179)" stroke-linejoin="round" d="M 1699,5890 L 1849,5890"/>
 <path fill="none" stroke="rgb(179,179,179)" stroke-linejoin="round" d="M 1699,4988 L 1849,4988"/>
 <path fill="none" stroke="rgb(179,179,179)" stroke-linejoin="round" d="M 1699,4988 L 1849,4988"/>
 <path fill="none" stroke="rgb(179,179,179)" stroke-linejoin="round" d="M 1699,4086 L 1849,4086"/>
 <path fill="none" stroke="rgb(179,179,179)" stroke-linejoin="round" d="M 1699,4086 L 1849,4086"/>
 <path fill="none" stroke="rgb(179,179,179)" stroke-linejoin="round" d="M 1699,3183 L 1849,3183"/>
 <path fill="none" stroke="rgb(179,179,179)" stroke-linejoin="round" d="M 1699,3183 L 1849,3183"/>
 <path fill="none" stroke="rgb(179,179,179)" stroke-linejoin="round" d="M 1699,2280 L 1849,2280"/>
 <path fill="none" stroke="rgb(179,179,179)" stroke-linejoin="round" d="M 1699,2280 L 1849,2280"/>
 <path fill="none" stroke="rgb(179,179,179)" stroke-linejoin="round" d="M 1699,1378 L 1849,1378"/>
 <path fill="none" stroke="rgb(179,179,179)" stroke-linejoin="round" d="M 1699,1378 L 1849,1378"/>
 <path fill="none" stroke="rgb(179,179,179)" stroke-linejoin="round" d="M 1699,475 L 1849,475"/>
 <path fill="none" stroke="rgb(179,179,179)" stroke-linejoin="round" d="M 1699,475 L 1849,475"/>
 <path fill="none" stroke="rgb(179,179,179)" stroke-linejoin="round" d="M 1849,8599 L 1849,295"/>
 <path fill="none" stroke="rgb(179,179,179)" stroke-linejoin="round" d="M 14774,8599 L 14624,8599"/>
 <path fill="none" stroke="rgb(179,179,179)" stroke-linejoin="round" d="M 14774,8599 L 14624,8599"/>
 <path fill="none" stroke="rgb(179,179,179)" stroke-linejoin="round" d="M 14774,6970 L 14624,6970"/>
 <path fill="none" stroke="rgb(179,179,179)" stroke-linejoin="round" d="M 14774,6970 L 14624,6970"/>
 <path fill="none" stroke="rgb(179,179,179)" stroke-linejoin="round" d="M 14774,5342 L 14624,5342"/>
 <path fill="none" stroke="rgb(179,179,179)" stroke-linejoin="round" d="M 14774,5342 L 14624,5342"/>
 <path fill="none" stroke="rgb(179,179,179)" stroke-linejoin="round" d="M 14774,3714 L 14624,3714"/>
 <path fill="none" stroke="rgb(179,179,179)" stroke-linejoin="round" d="M 14774,3714 L 14624,3714"/>
 <path fill="none" stroke="rgb(179,179,179)" stroke-linejoin="round" d="M 14774,2086 L 14624,2086"/>
 <path fill="none" stroke="rgb(179,179,179)" stroke-linejoin="round" d="M 14774,2086 L 14624,2086"/>
 <path fill="none" stroke="rgb(179,179,179)" stroke-linejoin="round" d="M 14774,457 L 14624,457"/>
 <path fill="none" stroke="rgb(179,179,179)" stroke-linejoin="round" d="M 14774,457 L 14624,457"/>
 <path fill="none" stroke="rgb(179,179,179)" stroke-linejoin="round" d="M 14624,8599 L 14624,295"/>
 <path fill="none" stroke="rgb(0,69,134)" stroke-width="50" stroke-linejoin="round" d="M 1849,8380 L 1864,8380 1880,8380 1895,8380 1911,8372 1926,8363 1942,8363 1958,8371 1973,8371 1989,8355 2004,8355 2020,8355 2035,8355 2051,8338 2067,8313 2082,8305 2098,8305 2113,8305 2129,8255 2145,8247 2160,8238 2176,8213 2191,8213 2207,8183 2222,8188 2238,8188 2254,8172 2269,8172 2285,8147 2300,8147 2316,8138 2331,8138 2347,8138 2363,8130 2378,8130 2394,8105 2409,8114 2425,8113 2441,8113 2456,8114 2472,8113 2487,7922 2503,7931 2518,7939 2534,7939 2550,7948 2565,7949 2581,7949 2596,7947 2612,7956 2628,7931 2643,7923 2659,7923 2674,7923 2690,7906 2705,7906 2721,7897 2737,7906 2752,7906 2768,7906 2783,7906 2799,7906 2814,7856 2830,7856 2846,7856 2861,7848 2877,7856 2892,7856 2908,7807 2924,7814 2939,7824 2955,7840 2970,7840 2986,7840 3001,7841 3017,7840 3033,7840 3048,7840 3064,7848 3079,7823 3095,7823 3111,7823 3126,7806 3142,7815 3157,7823 3173,7815 3188,7823 3204,7831 3220,7831 3235,7831 3251,7831 3266,7823 3282,7673 3297,7839 3313,7839 3329,7840 3344,7839 3360,7856 3375,7864 3391,7823 3407,7798 3422,7798 3438,7798 3453,7798 3469,7798 3484,7748 3500,7590 3516,7590 3531,7590 3547,7591 3562,7590 3578,7441 3594,7433 3609,7424 3625,7424 3640,7433 3656,7433 3671,7432 3687,7441 3703,7441 3718,7433 3734,7391 3749,7391 3765,7391 3780,7391 3796,7383 3812,7383 3827,7383 3843,7374 3858,7374 3874,7375 3890,7383 3905,7374 3921,7374 3936,7391 3952,7399 3967,7399 3983,7399 3999,7399 4014,7408 4030,7241 4045,7241 4061,7241 4077,7241 4092,7242 4108,7242 4123,7241 4139,7241 4154,7241 4170,7241 4186,7241 4201,7241 4217,7241 4232,7258 4248,7258 4263,7258 4279,7225 4295,7225 4310,7225 4326,7067 4341,7233 4357,7233 4373,7075 4388,7075 4404,7076 4419,7077 4435,7084 4450,7084 4466,7101 4482,7109 4497,7117 4513,7117 4528,7117 4544,7117 4560,7117 4575,7117 4591,7127 4606,7126 4622,7126 4637,7126 4653,7134 4669,7192 4684,7208 4700,7233 4715,7233 4731,7233 4746,7234 4762,7242 4778,7242 4793,7250 4809,7250 4824,7250 4840,7250 4856,7250 4871,7250 4887,7250 4902,7250 4918,7250 4933,7258 4949,7259 4965,7259 4980,7258 4996,7267 5011,7101 5027,7101 5043,7100 5058,7100 5074,7100 5089,7100 5105,7100 5120,7100 5136,7109 5152,7109 5167,7109 5183,7109 5198,7109 5214,7109 5229,7109 5245,7109 5261,6934 5276,6934 5292,6934 5307,6943 5323,6976 5339,6967 5354,6959 5370,6976 5385,6976 5401,6976 5416,6976 5432,6976 5448,6976 5463,6976 5479,6976 5494,6976 5510,6976 5525,6984 5541,7001 5557,6992 5572,6992 5588,6826 5603,6826 5619,6829 5635,6826 5650,6834 5666,6834 5681,6834 5697,6834 5712,6835 5728,6835 5744,6835 5759,6834 5775,6810 5790,6810 5806,6809 5822,6809 5837,6809 5853,6786 5868,6785 5884,6760 5899,6760 5915,6768 5931,6760 5946,6760 5962,6760 5977,6743 5993,6743 6008,6752 6024,6751 6040,6751 6055,6743 6071,6743 6086,6743 6102,6743 6118,6743 6133,6577 6149,6577 6164,6577 6180,6594 6195,6585 6211,6585 6227,6585 6242,6586 6258,6586 6273,6587 6289,6602 6305,6602 6320,6611 6336,6610 6351,6610 6367,6610 6382,6611 6398,6444 6414,6278 6429,6295 6445,6295 6460,6295 6476,6295 6491,6295 6507,6311 6523,6311 6538,6303 6554,6303 6569,6311 6585,6311 6601,6328 6616,6328 6632,6320 6647,6170 6663,6170 6678,6178 6694,6178 6710,6178 6725,6178 6741,6187 6756,6211 6772,6220 6788,6211 6803,6212 6819,6211 6834,6220 6850,6054 6865,6054 6881,6054 6897,6054 6912,6054 6928,6054 6943,5888 6959,5888 6974,5888 6990,5896 7006,5888 7021,5888 7037,5888 7052,5896 7068,5888 7084,5888 7099,5904 7115,5904 7130,5896 7146,5730 7161,5730 7177,5719 7193,5719 7208,5702 7224,5544 7239,5544 7255,5545 7271,5378 7286,5747 7302,5747 7317,5747 7333,5730 7348,5730 7364,5730 7380,5423 7395,5423 7411,5431 7426,5431 7442,5431 7457,5431 7473,5431 7489,5431 7504,5431 7520,5431 7535,5431 7551,5431 7567,5420 7582,5420 7598,5428 7613,5436 7629,5436 7644,5436 7660,5436 7676,5437 7691,5436 7707,5436 7722,5436 7738,5436 7754,5428 7769,5436 7785,5437 7800,5439 7816,5436 7831,5437 7847,5445 7863,5445 7878,5279 7894,5279 7909,5279 7925,5279 7940,5287 7956,5287 7972,5279 7987,5287 8002,5287 8017,5295 8033,5287 8049,5287 8064,5287 8080,5287 8095,5287 8111,5287 8126,5287 8142,5122 8158,5129 8173,5129 8189,5129 8204,5129 8220,5129 8236,5129 8251,5129 8267,5129 8282,4901 8298,4901 8313,4735 8329,4735 8345,4735 8360,4735 8376,4710 8391,4735 8407,4568 8422,4563 8438,4560 8454,4561 8469,4577 8485,4552 8500,4552 8516,4560 8532,4568 8547,4577 8563,4577 8578,4568 8594,4577 8609,4577 8625,4568 8641,4568 8656,4568 8672,4568 8687,4568 8703,4568 8718,4585 8734,4585 8750,4577 8765,4577 8781,4577 8796,4585 8812,4431 8828,4431 8843,4431 8859,4423 8874,4423 8890,4431 8905,4431 8921,4439 8937,4456 8952,4456 8968,4456 8983,4456 8999,4456 9015,4464 9030,4464 9046,4464 9061,4464 9077,4290 9092,4290 9108,4306 9124,4306 9139,4306 9155,4304 9170,4304 9186,4295 9201,4295 9217,4295 9233,4287 9248,4298 9264,4298 9279,4132 9295,4132 9311,4132 9326,4132 9342,4132 9357,4140 9373,4165 9388,4165 9404,4157 9420,4165 9435,4165 9451,3999 9466,3999 9482,3999 9498,4024 9513,4024 9529,3999 9544,3999 9560,3999 9575,3833 9591,3833 9607,3833 9622,3816 9638,3825 9653,3825 9669,3833 9684,3833 9700,3833 9716,3850 9731,3841 9747,3841 9762,3833 9778,3866 9794,3866 9809,3858 9825,3866 9840,3875 9856,3874 9871,3875 9887,3875 9903,3717 9918,3717 9934,3800 9949,3783 9965,3800 9981,3800 9996,3800 10012,3800 10027,3733 10043,3567 10058,3576 10074,3592 10090,3584 10105,3584 10121,3592 10136,3584 10152,3501 10167,3468 10183,3468 10199,3468 10214,3468 10230,3451 10245,3434 10261,3434 10277,3434 10292,3434 10308,3434 10323,3434 10339,3110 10354,3111 10370,3102 10386,3077 10401,3102 10417,3094 10432,3094 10448,3102 10464,3086 10479,3169 10495,2953 10510,3038 10526,3022 10541,2995 10557,2978 10573,2961 10588,2961 10604,2989 10619,2997 10635,3038 10650,2994 10666,3036 10682,3044 10697,3094 10713,3177 10728,3185 10744,3180 10760,3135 10775,3152 10791,3127 10806,3127 10822,3138 10837,3157 10853,3157 10869,3124 10884,3121 10900,3243 10915,3301 10931,3360 10947,3130 10962,3131 10978,3131 10993,3123 11009,3123 11024,2978 11040,2978 11056,2978 11071,2978 11087,2977 11102,3024 11118,3069 11133,3093 11149,3124 11165,3133 11180,3133 11196,3141 11211,3201 11227,3293 11243,3301 11258,3301 11274,3293 11289,3293 11305,3293 11320,3301 11336,3301 11352,3309 11367,3301 11383,3301 11398,3301 11414,3301 11430,3301 11445,3301 11461,3301 11476,3301 11492,3301 11507,3301 11523,3301 11539,3309 11554,3310 11570,3309 11585,3309 11601,3309 11616,3309 11632,3309 11648,3298 11663,3298 11679,3309 11694,3318 11710,3318 11726,3309 11741,3309 11757,3309 11772,3309 11788,3309 11803,3309 11819,3309 11835,3309 11850,3309 11866,3309 11881,3309 11897,3089 11912,3089 11928,3097 11944,3098 11959,3108 11975,3109 11990,3108 12006,3097 12022,3097 12037,3097 12053,3097 12068,3098 12084,3097 12099,3097 12115,3098 12131,3114 12146,3123 12162,3131 12177,3122 12193,3122 12209,3122 12224,3123 12240,3114 12255,3114 12271,3114 12286,3123 12302,3122 12318,3122 12333,3122 12349,3111 12364,3112 12380,3112 12395,3103 12411,3103 12427,3103 12442,3103 12458,2883 12473,2883 12489,2883 12505,2894 12520,2894 12536,2902 12551,2902 12567,2902 12582,2902 12598,2902 12614,2902 12629,2894 12645,2894 12660,2895 12676,2894 12692,2894 12707,2894 12723,2894 12738,2902 12754,2736 12769,2736 12785,2728 12801,2728 12816,2736 12832,2516 12847,2516 12863,2516 12878,2517 12894,2507 12910,2507 12925,2507 12941,2507 12956,2516 12972,2517 12988,2509 13003,2516 13019,2516 13034,2516 13050,2516 13065,2524 13081,2524 13097,2524 13112,2524 13128,2516 13143,2516 13159,2524 13175,2524 13190,2524 13206,2524 13221,2524 13237,2524 13252,2524 13268,2525 13284,2516 13299,2516 13315,2516 13330,2516 13346,2516 13361,2516 13377,2516 13393,2516 13408,2524 13424,2524 13439,2524 13455,2524 13471,2524 13486,2524 13502,2524 13517,2524 13533,2524 13548,2516 13564,2516 13580,2516 13595,2516 13611,2516 13626,2516 13642,2516 13658,2516 13673,2516 13689,2516 13704,2516 13720,2284 13735,2273 13751,2282 13767,2282 13782,2282 13798,2293 13813,2293 13829,2293 13844,2293 13860,2293 13876,2371 13891,2293 13907,2296 13922,2293 13938,2293 13954,2127 13969,1795 13985,1794 14000,1788 14016,1788 14031,1806 14047,1795 14063,1783 14078,1783 14094,1783 14109,1784 14125,1783 14141,1794 14156,1784 14172,1783 14187,1617 14203,1617 14218,1617 14234,1617 14250,1617 14265,1617 14281,1628 14296,1629 14312,1628 14327,1629 14343,1408 14359,1408 14374,1408 14390,1408 14405,1408 14421,1199 14437,1207 14452,1208 14468,767 14483,767 14499,766 14514,546 14530,547 14546,571 14561,572 14577,560 14592,571 14608,571 14624,571"/>
 <path fill="none" stroke="rgb(255,0,0)" stroke-width="10" stroke-linejoin="round" d="M 1849,8310 L 1864,8310 1880,8310 1895,8310 1911,8306 1926,8296 1942,8285 1958,8289 1973,8289 1989,8278 2004,8278 2020,8278 2035,8276 2051,8263 2067,8242 2082,8234 2098,8233 2113,8234 2129,8193 2145,8187 2160,8185 2176,8167 2191,8167 2207,8150 2222,8150 2238,8150 2254,8138 2269,8138 2285,8121 2300,8120 2316,8114 2331,8114 2347,8114 2363,8108 2378,8108 2394,8089 2409,8094 2425,8097 2441,8097 2456,8097 2472,8097 2487,7961 2503,7963 2518,7960 2534,7960 2550,7965 2565,7965 2581,7965 2596,7965 2612,7971 2628,7953 2643,7942 2659,7943 2674,7943 2690,7929 2705,7929 2721,7931 2737,7936 2752,7936 2768,7936 2783,7936 2799,7936 2814,7892 2830,7889 2846,7889 2861,7886 2877,7889 2892,7889 2908,7859 2924,7864 2939,7864 2955,7869 2970,7859 2986,7859 3001,7860 3017,7859 3033,7859 3048,7849 3064,7854 3079,7851 3095,7851 3111,7851 3126,7839 3142,7842 3157,7844 3173,7840 3188,7839 3204,7845 3220,7845 3235,7845 3251,7845 3266,7838 3282,7676 3297,7852 3313,7853 3329,7853 3344,7847 3360,7850 3375,7854 3391,7814 3407,7805 3422,7805 3438,7805 3453,7805 3469,7805 3484,7752 3500,7576 3516,7576 3531,7576 3547,7576 3562,7576 3578,7466 3594,7464 3609,7458 3625,7456 3640,7457 3656,7457 3671,7457 3687,7460 3703,7460 3718,7460 3734,7430 3749,7430 3765,7430 3780,7430 3796,7421 3812,7421 3827,7421 3843,7420 3858,7420 3874,7421 3890,7424 3905,7423 3921,7423 3936,7433 3952,7439 3967,7439 3983,7439 3999,7439 4014,7441 4030,7324 4045,7324 4061,7322 4077,7322 4092,7322 4108,7322 4123,7321 4139,7321 4154,7321 4170,7321 4186,7321 4201,7321 4217,7321 4232,7325 4248,7325 4263,7325 4279,7307 4295,7307 4310,7307 4326,7191 4341,7309 4357,7309 4373,7193 4388,7193 4404,7193 4419,7193 4435,7195 4450,7195 4466,7203 4482,7206 4497,7208 4513,7208 4528,7208 4544,7208 4560,7208 4575,7208 4591,7214 4606,7213 4622,7213 4637,7213 4653,7212 4669,7227 4684,7232 4700,7238 4715,7238 4731,7239 4746,7239 4762,7241 4778,7241 4793,7246 4809,7246 4824,7246 4840,7247 4856,7247 4871,7247 4887,7247 4902,7247 4918,7247 4933,7249 4949,7249 4965,7249 4980,7249 4996,7250 5011,7133 5027,7133 5043,7133 5058,7133 5074,7133 5089,7133 5105,7133 5120,7133 5136,7134 5152,7134 5167,7134 5183,7135 5198,7134 5214,7134 5229,7134 5245,7134 5261,7011 5276,7011 5292,7011 5307,7013 5323,7037 5339,7029 5354,7022 5370,7032 5385,7032 5401,7032 5416,7031 5432,7031 5448,7031 5463,7029 5479,7029 5494,7029 5510,7029 5525,7034 5541,7046 5557,7040 5572,7039 5588,6920 5603,6920 5619,6921 5635,6920 5650,6925 5666,6923 5681,6925 5697,6920 5712,6920 5728,6920 5744,6920 5759,6920 5775,6904 5790,6904 5806,6904 5822,6904 5837,6904 5853,6887 5868,6887 5884,6869 5899,6869 5915,6875 5931,6869 5946,6869 5962,6869 5977,6862 5993,6862 6008,6863 6024,6863 6040,6863 6055,6857 6071,6857 6086,6857 6102,6857 6118,6857 6133,6740 6149,6740 6164,6740 6180,6750 6195,6744 6211,6744 6227,6744 6242,6744 6258,6744 6273,6745 6289,6750 6305,6750 6320,6754 6336,6754 6351,6754 6367,6754 6382,6754 6398,6640 6414,6522 6429,6532 6445,6531 6460,6531 6476,6531 6491,6531 6507,6535 6523,6535 6538,6532 6554,6532 6569,6533 6585,6533 6601,6540 6616,6543 6632,6538 6647,6424 6663,6424 6678,6424 6694,6424 6710,6424 6725,6424 6741,6425 6756,6444 6772,6446 6788,6439 6803,6439 6819,6439 6834,6441 6850,6324 6865,6324 6881,6324 6897,6324 6912,6324 6928,6324 6943,6206 6959,6206 6974,6206 6990,6208 7006,6206 7021,6206 7037,6206 7052,6212 7068,6206 7084,6206 7099,6218 7115,6218 7130,6212 7146,6094 7161,6094 7177,6086 7193,6086 7208,6083 7224,5967 7239,5967 7255,5967 7271,5850 7286,6091 7302,6091 7317,6091 7333,6084 7348,6084 7364,6084 7380,5856 7395,5856 7411,5859 7426,5858 7442,5858 7457,5858 7473,5858 7489,5858 7504,5858 7520,5858 7535,5858 7551,5858 7567,5851 7582,5851 7598,5853 7613,5855 7629,5855 7644,5855 7660,5855 7676,5855 7691,5855 7707,5855 7722,5855 7738,5855 7754,5853 7769,5856 7785,5856 7800,5858 7816,5856 7831,5856 7847,5857 7863,5858 7878,5740 7894,5740 7909,5740 7925,5740 7940,5742 7956,5742 7972,5740 7987,5742 8002,5745 8017,5748 8033,5742 8049,5742 8064,5742 8080,5742 8095,5742 8111,5742 8126,5742 8142,5625 8158,5627 8173,5627 8189,5627 8204,5627 8220,5627 8236,5627 8251,5627 8267,5627 8282,5469 8298,5469 8313,5351 8329,5351 8345,5351 8360,5351 8376,5347 8391,5353 8407,5238 8422,5235 8438,5233 8454,5234 8469,5241 8485,5232 8500,5232 8516,5234 8532,5235 8547,5237 8563,5237 8578,5235 8594,5237 8609,5236 8625,5235 8641,5235 8656,5235 8672,5235 8687,5235 8703,5235 8718,5240 8734,5240 8750,5238 8765,5238 8781,5238 8796,5241 8812,5131 8828,5131 8843,5131 8859,5129 8874,5129 8890,5131 8905,5131 8921,5132 8937,5137 8952,5137 8968,5138 8983,5138 8999,5138 9015,5140 9030,5140 9046,5141 9061,5141 9077,5022 9092,5022 9108,5026 9124,5026 9139,5026 9155,5026 9170,5026 9186,5024 9201,5024 9217,5024 9233,5021 9248,5023 9264,5023 9279,4906 9295,4906 9311,4906 9326,4906 9342,4906 9357,4910 9373,4920 9388,4920 9404,4918 9420,4920 9435,4920 9451,4802 9466,4802 9482,4802 9498,4811 9513,4811 9529,4802 9544,4802 9560,4802 9575,4676 9591,4676 9607,4681 9622,4672 9638,4681 9653,4680 9669,4682 9684,4682 9700,4682 9716,4688 9731,4682 9747,4682 9762,4679 9778,4694 9794,4694 9809,4688 9825,4691 9840,4694 9856,4694 9871,4694 9887,4694 9903,4463 9918,4463 9934,4538 9949,4534 9965,4538 9981,4538 9996,4538 10012,4532 10027,4469 10043,4351 10058,4354 10074,4360 10090,4357 10105,4357 10121,4360 10136,4357 10152,4304 10167,4278 10183,4278 10199,4278 10214,4278 10230,4266 10245,4245 10261,4245 10277,4245 10292,4245 10308,4245 10323,4245 10339,3781 10354,3781 10370,3775 10386,3768 10401,3775 10417,3774 10432,3774 10448,3780 10464,3771 10479,3823 10495,3670 10510,3730 10526,3719 10541,3700 10557,3693 10573,3673 10588,3676 10604,3698 10619,3698 10635,3733 10650,3705 10666,3737 10682,3738 10697,3761 10713,3819 10728,3828 10744,3824 10760,3790 10775,3793 10791,3774 10806,3753 10822,3753 10837,3770 10853,3770 10869,3742 10884,3740 10900,3826 10915,3847 10931,3867 10947,3553 10962,3553 10978,3553 10993,3551 11009,3551 11024,3265 11040,3265 11056,3265 11071,3265 11087,3265 11102,3280 11118,3296 11133,3304 11149,3316 11165,3319 11180,3319 11196,3322 11211,3341 11227,3373 11243,3377 11258,3377 11274,3374 11289,3374 11305,3375 11320,3378 11336,3378 11352,3379 11367,3376 11383,3376 11398,3376 11414,3376 11430,3376 11445,3376 11461,3376 11476,3376 11492,3376 11507,3376 11523,3376 11539,3379 11554,3380 11570,3379 11585,3379 11601,3379 11616,3379 11632,3379 11648,3375 11663,3375 11679,3379 11694,3382 11710,3382 11726,3379 11741,3379 11757,3379 11772,3379 11788,3379 11803,3379 11819,3379 11835,3379 11850,3379 11866,3379 11881,3379 11897,3066 11912,3066 11928,3069 11944,3069 11959,3084 11975,3084 11990,3084 12006,3069 12022,3069 12037,3069 12053,3069 12068,3069 12084,3069 12099,3069 12115,3069 12131,3075 12146,3078 12162,3084 12177,3078 12193,3078 12209,3078 12224,3078 12240,3075 12255,3075 12271,3075 12286,3079 12302,3078 12318,3078 12333,3078 12349,3076 12364,3076 12380,3076 12395,3070 12411,3070 12427,3070 12442,3070 12458,2757 12473,2757 12489,2757 12505,2759 12520,2759 12536,2765 12551,2765 12567,2765 12582,2765 12598,2765 12614,2765 12629,2762 12645,2762 12660,2762 12676,2762 12692,2762 12707,2762 12723,2762 12738,2765 12754,2647 12769,2647 12785,2644 12801,2644 12816,2647 12832,2339 12847,2342 12863,2342 12878,2342 12894,2336 12910,2336 12925,2336 12941,2336 12956,2337 12972,2338 12988,2336 13003,2337 13019,2337 13034,2337 13050,2337 13065,2340 13081,2340 13097,2340 13112,2340 13128,2339 13143,2339 13159,2344 13175,2345 13190,2344 13206,2345 13221,2344 13237,2344 13252,2345 13268,2345 13284,2339 13299,2339 13315,2339 13330,2339 13346,2339 13361,2339 13377,2339 13393,2339 13408,2340 13424,2340 13439,2340 13455,2340 13471,2340 13486,2340 13502,2340 13517,2340 13533,2340 13548,2337 13564,2337 13580,2337 13595,2337 13611,2337 13626,2337 13642,2337 13658,2337 13673,2337 13689,2337 13704,2337 13720,2020 13735,2018 13751,2021 13767,2021 13782,2021 13798,2025 13813,2025 13829,2025 13844,2025 13860,2025 13876,2088 13891,2025 13907,2027 13922,2025 13938,2025 13954,1908 13969,1672 13985,1670 14000,1668 14016,1668 14031,1675 14047,1671 14063,1667 14078,1667 14094,1666 14109,1667 14125,1666 14141,1670 14156,1667 14172,1667 14187,1549 14203,1549 14218,1549 14234,1549 14250,1549 14265,1549 14281,1553 14296,1553 14312,1553 14327,1553 14343,1240 14359,1240 14374,1240 14390,1240 14405,1240 14421,1087 14437,1091 14452,1092 14468,778 14483,778 14499,785 14514,568 14530,465 14546,478 14561,479 14577,474 14592,479 14608,478 14624,478"/>
 <text class="TextShape"><tspan class="TextParagraph" font-family="Liberation Sans, sans-serif" font-size="353px" font-weight="400"><tspan class="TextPosition" x="673" y="8719"><tspan fill="rgb(0,0,0)" stroke="none">40000</tspan></tspan></tspan></text>
 <text class="TextShape"><tspan class="TextParagraph" font-family="Liberation Sans, sans-serif" font-size="353px" font-weight="400"><tspan class="TextPosition" x="673" y="7816"><tspan fill="rgb(0,0,0)" stroke="none">45000</tspan></tspan></tspan></text>
 <text class="TextShape"><tspan class="TextParagraph" font-family="Liberation Sans, sans-serif" font-size="353px" font-weight="400"><tspan class="TextPosition" x="673" y="6913"><tspan fill="rgb(0,0,0)" stroke="none">50000</tspan></tspan></tspan></text>
 <text class="TextShape"><tspan class="TextParagraph" font-family="Liberation Sans, sans-serif" font-size="353px" font-weight="400"><tspan class="TextPosition" x="673" y="6010"><tspan fill="rgb(0,0,0)" stroke="none">55000</tspan></tspan></tspan></text>
 <text class="TextShape"><tspan class="TextParagraph" font-family="Liberation Sans, sans-serif" font-size="353px" font-weight="400"><tspan class="TextPosition" x="673" y="5108"><tspan fill="rgb(0,0,0)" stroke="none">60000</tspan></tspan></tspan></text>
 <text class="TextShape"><tspan class="TextParagraph" font-family="Liberation Sans, sans-serif" font-size="353px" font-weight="400"><tspan class="TextPosition" x="673" y="4205"><tspan fill="rgb(0,0,0)" stroke="none">65000</tspan></tspan></tspan></text>
 <text class="TextShape"><tspan class="TextParagraph" font-family="Liberation Sans, sans-serif" font-size="353px" font-weight="400"><tspan class="TextPosition" x="673" y="3302"><tspan fill="rgb(0,0,0)" stroke="none">70000</tspan></tspan></tspan></text>
 <text class="TextShape"><tspan class="TextParagraph" font-family="Liberation Sans, sans-serif" font-size="353px" font-weight="400"><tspan class="TextPosition" x="673" y="2399"><tspan fill="rgb(0,0,0)" stroke="none">75000</tspan></tspan></tspan></text>
 <text class="TextShape"><tspan class="TextParagraph" font-family="Liberation Sans, sans-serif" font-size="353px" font-weight="400"><tspan class="TextPosition" x="673" y="1497"><tspan fill="rgb(0,0,0)" stroke="none">80000</tspan></tspan></tspan></text>
 <text class="TextShape"><tspan class="TextParagraph" font-family="Liberation Sans, sans-serif" font-size="353px" font-weight="400"><tspan class="TextPosition" x="673" y="594"><tspan fill="rgb(0,0,0)" stroke="none">85000</tspan></tspan></tspan></text>
 <text class="TextShape"><tspan class="TextParagraph" font-family="Liberation Sans, sans-serif" font-size="353px" font-weight="400"><tspan class="TextPosition" x="14874" y="8719"><tspan fill="rgb(0,0,0)" stroke="none">130</tspan></tspan></tspan></text>
 <text class="TextShape"><tspan class="TextParagraph" font-family="Liberation Sans, sans-serif" font-size="353px" font-weight="400"><tspan class="TextPosition" x="14874" y="7090"><tspan fill="rgb(0,0,0)" stroke="none">180</tspan></tspan></tspan></text>
 <text class="TextShape"><tspan class="TextParagraph" font-family="Liberation Sans, sans-serif" font-size="353px" font-weight="400"><tspan class="TextPosition" x="14874" y="5462"><tspan fill="rgb(0,0,0)" stroke="none">230</tspan></tspan></tspan></text>
 <text class="TextShape"><tspan class="TextParagraph" font-family="Liberation Sans, sans-serif" font-size="353px" font-weight="400"><tspan class="TextPosition" x="14874" y="3833"><tspan fill="rgb(0,0,0)" stroke="none">280</tspan></tspan></tspan></text>
 <text class="TextShape"><tspan class="TextParagraph" font-family="Liberation Sans, sans-serif" font-size="353px" font-weight="400"><tspan class="TextPosition" x="14874" y="2205"><tspan fill="rgb(0,0,0)" stroke="none">330</tspan></tspan></tspan></text>
 <text class="TextShape"><tspan class="TextParagraph" font-family="Liberation Sans, sans-serif" font-size="353px" font-weight="400"><tspan class="TextPosition" x="14874" y="576"><tspan fill="rgb(0,0,0)" stroke="none">380</tspan></tspan></tspan></text>
 <path fill="none" stroke="rgb(0,69,134)" stroke-width="50" stroke-linejoin="round" d="M 2633,1018 L 3433,1018"/>
 <path fill="none" stroke="rgb(255,0,0)" stroke-width="10" stroke-linejoin="round" d="M 5347,1018 L 6147,1018"/>
 <text class="TextShape"><tspan class="TextParagraph" font-family="Liberation Sans, sans-serif" font-size="353px" font-weight="400"><tspan class="TextPosition" x="3533" y="1137"><tspan fill="rgb(0,0,0)" stroke="none">count</tspan></tspan></tspan></text>
 <text class="TextShape"><tspan class="TextParagraph" font-family="Liberation Sans, sans-serif" font-size="353px" font-weight="400"><tspan class="TextPosition" x="6247" y="1137"><tspan fill="rgb(0,0,0)" stroke="none">Tot_Capacity [Pbytes]</tspan></tspan></tspan></text>
 <text class="TextShape" transform="translate(360,5807) rotate(-90) translate(-360,-5807)"><tspan class="TextParagraph" font-family="Liberation Sans, sans-serif" font-size="318px" font-weight="400"><tspan class="TextPosition" x="360" y="5807"><tspan fill="rgb(0,0,0)" stroke="none">Drive count [units]</tspan></tspan></tspan></text>
 <text class="TextShape" transform="translate(15850,5466) rotate(-90) translate(-15850,-5466)"><tspan class="TextParagraph" font-family="Liberation Sans, sans-serif" font-size="318px" font-weight="400"><tspan class="TextPosition" x="15850" y="5466"><tspan fill="rgb(0,0,0)" stroke="none">Capacity [Pb]</tspan></tspan></tspan></text>
</svg>