<?xml version="1.0" encoding="UTF-8"?>
<!DOCTYPE svg PUBLIC "-//W3C//DTD SVG 1.1//EN" "http://www.w3.org/Graphics/SVG/1.1/DTD/svg11.dtd">
<svg width="160mm" height="90mm" viewBox="0 0 16000 9000" version="1.1" xmlns="http://www.w3.org/2000/svg" stroke-width="28.222" stroke-linejoin="round" xml:space="preserve">
 <path fill="rgb(255,255,255)" stroke="none" d="M 8000,8999 L 0,8999 0,0 15999,0 15999,8999 8000,8999 Z"/>
 <path fill="none" stroke="rgb(179,179,179)" stroke-linejoin="round" d="M 8475,8732 L 1284,8732 1284,350 15666,350 15666,8732 8475,8732 Z"/>
 <path fill="none" stroke="rgb(179,179,179)" stroke-linejoin="round" d="M 15666,8731 L 1284,8731"/>
 <path fill="none" stroke="rgb(179,179,179)" stroke-linejoin="round" d="M 15666,7799 L 1284,7799"/>
 <path fill="none" stroke="rgb(179,179,179)" stroke-linejoin="round" d="M 15666,6868 L 1284,6868"/>
 <path fill="none" stroke="rgb(179,179,179)" stroke-linejoin="round" d="M 15666,5936 L 1284,5936"/>
 <path fill="none" stroke="rgb(179,179,179)" stroke-linejoin="round" d="M 15666,5005 L 1284,5005"/>
 <path fill="none" stroke="rgb(179,179,179)" stroke-linejoin="round" d="M 15666,4074 L 1284,4074"/>
 <path fill="none" stroke="rgb(179,179,179)" stroke-linejoin="round" d="M 15666,3143 L 1284,3143"/>
 <path fill="none" stroke="rgb(179,179,179)" stroke-linejoin="round" d="M 15666,2211 L 1284,2211"/>
 <path fill="none" stroke="rgb(179,179,179)" stroke-linejoin="round" d="M 15666,1280 L 1284,1280"/>
 <path fill="none" stroke="rgb(179,179,179)" stroke-linejoin="round" d="M 15666,349 L 1284,349"/>
 <path fill="none" stroke="rgb(179,179,179)" stroke-linejoin="round" d="M 1134,8731 L 1284,8731"/>
 <path fill="none" stroke="rgb(179,179,179)" stroke-linejoin="round" d="M 1134,8731 L 1284,8731"/>
 <path fill="none" stroke="rgb(179,179,179)" stroke-linejoin="round" d="M 1134,7799 L 1284,7799"/>
 <path fill="none" stroke="rgb(179,179,179)" stroke-linejoin="round" d="M 1134,7799 L 1284,7799"/>
 <path fill="none" stroke="rgb(179,179,179)" stroke-linejoin="round" d="M 1134,6868 L 1284,6868"/>
 <path fill="none" stroke="rgb(179,179,179)" stroke-linejoin="round" d="M 1134,6868 L 1284,6868"/>
 <path fill="none" stroke="rgb(179,179,179)" stroke-linejoin="round" d="M 1134,5936 L 1284,5936"/>
 <path fill="none" stroke="rgb(179,179,179)" stroke-linejoin="round" d="M 1134,5936 L 1284,5936"/>
 <path fill="none" stroke="rgb(179,179,179)" stroke-linejoin="round" d="M 1134,5005 L 1284,5005"/>
 <path fill="none" stroke="rgb(179,179,179)" stroke-linejoin="round" d="M 1134,5005 L 1284,5005"/>
 <path fill="none" stroke="rgb(179,179,179)" stroke-linejoin="round" d="M 1134,4074 L 1284,4074"/>
 <path fill="none" stroke="rgb(179,179,179)" stroke-linejoin="round" d="M 1134,4074 L 1284,4074"/>
 <path fill="none" stroke="rgb(179,179,179)" stroke-linejoin="round" d="M 1134,3143 L 1284,3143"/>
 <path fill="none" stroke="rgb(179,179,179)" stroke-linejoin="round" d="M 1134,3143 L 1284,3143"/>
 <path fill="none" stroke="rgb(179,179,179)" stroke-linejoin="round" d="M 1134,2211 L 1284,2211"/>
 <path fill="none" stroke="rgb(179,179,179)" stroke-linejoin="round" d="M 1134,2211 L 1284,2211"/>
 <path fill="none" stroke="rgb(179,179,179)" stroke-linejoin="round" d="M 1134,1280 L 1284,1280"/>
 <path fill="none" stroke="rgb(179,179,179)" stroke-linejoin="round" d="M 1134,1280 L 1284,1280"/>
 <path fill="none" stroke="rgb(179,179,179)" stroke-linejoin="round" d="M 1134,349 L 1284,349"/>
 <path fill="none" stroke="rgb(179,179,179)" stroke-linejoin="round" d="M 1134,349 L 1284,349"/>
 <path fill="none" stroke="rgb(179,179,179)" stroke-linejoin="round" d="M 1284,8731 L 1284,349"/>
 <path fill="none" stroke="rgb(0,127,255)" stroke-width="80" stroke-linejoin="round" d="M 1284,5653 L 1301,5635 1319,5634 1336,5641 1354,5647 1371,5607 1389,5626 1406,5686 1424,5636 1441,5631 1459,5641 1476,5649 1494,5713 1512,5672 1529,5733 1547,5717 1564,5694 1582,5715 1599,5661 1617,5698 1634,5730 1652,5758 1669,5741 1687,5739 1704,5740 1722,5697 1740,5702 1757,5672 1775,5681 1792,5698 1810,5636 1827,5674 1845,5606 1862,5644 1880,5579 1897,5652 1915,5683 1932,5641 1950,5550 1968,5567 1985,5660 2003,5693 2020,5657 2038,5659 2055,5644 2073,5640 2090,5640 2108,5655 2125,5573 2143,5534 2161,5532 2178,5528 2196,5583 2213,5585 2231,5584 2248,5580 2266,5622 2283,5552 2301,5527 2318,5634 2336,5638 2353,5578 2371,5568 2389,5596 2406,5579 2424,5584 2441,5542 2459,5540 2476,5549 2494,5514 2511,5529 2529,5516 2546,5477 2564,5453 2581,5536 2599,5530 2617,5494 2634,5395 2652,5499 2669,5538 2687,5479 2704,5517 2722,5576 2739,5533 2757,5487 2774,5438 2792,5454 2810,5530 2827,5495 2845,5488 2862,5568 2880,5505 2897,5514 2915,5523 2932,5518 2950,5549 2967,5536 2985,5437 3002,5402 3020,5391 3038,5552 3055,5544 3073,5559 3090,5530 3108,5510 3125,5560 3143,5472 3160,5657 3178,5440 3195,5321 3213,5389 3230,5307 3248,5449 3266,5329 3283,5388 3301,5385 3318,5344 3336,5344 3353,5213 3371,5333 3388,5291 3406,5426 3423,5410 3441,5411 3458,5384 3476,5345 3494,5423 3511,5259 3529,5299 3546,5325 3564,5258 3581,5205 3599,5211 3616,5220 3634,5240 3651,5237 3669,5336 3687,5254 3704,5250 3722,5289 3739,5257 3757,5350 3774,5362 3792,5331 3809,5376 3827,5406 3844,5515 3862,5504 3879,5469 3897,5452 3915,5456 3932,5517 3950,5466 3967,5474 3985,5505 4002,5493 4020,5587 4037,5565 4055,5559 4072,5537 4090,5601 4107,5502 4125,5552 4143,5603 4160,5522 4178,5564 4195,5547 4213,5626 4230,5571 4248,5510 4265,5497 4283,5556 4300,5510 4318,5462 4336,5465 4353,5568 4371,5615 4388,5537 4406,5524 4423,5524 4441,5569 4458,5636 4476,5580 4493,5550 4511,5613 4528,5607 4546,5548 4564,5585 4581,5584 4599,5458 4616,5427 4634,5417 4651,5439 4669,5439 4686,5444 4704,5429 4721,5653 4739,5651 4756,5660 4774,5658 4792,5674 4809,5653 4827,5603 4844,5715 4862,5706 4879,5655 4897,5707 4914,5708 4932,5644 4949,5643 4967,5649 4984,5628 5002,5641 5020,5637 5037,5623 5055,5633 5072,5639 5090,5647 5107,5638 5125,5633 5142,5646 5160,5631 5177,5623 5195,5634 5213,5628 5230,5655 5248,5619 5265,5615 5283,5610 5300,5621 5318,5615 5335,5620 5353,5607 5370,5621 5388,5621 5405,5647 5423,5630 5441,5627 5458,5630 5476,5639 5493,5612 5511,5626 5528,5620 5546,5620 5563,5630 5581,5628 5598,5619 5616,5620 5633,5632 5651,5617 5669,5643 5686,5647 5704,5638 5721,5660 5739,5644 5756,5625 5774,5638 5791,5631 5809,5636 5826,5617 5844,5621 5862,5639 5879,5629 5897,5595 5914,5610 5932,5613 5949,5609 5967,5628 5984,5644 6002,5627 6019,5631 6037,5606 6054,5613 6072,5603 6090,5612 6107,5613 6125,5606 6142,5602 6160,5602 6177,5547 6195,5722 6212,5717 6230,5733 6247,5729 6265,5734 6282,5747 6300,5737 6318,5744 6335,5733 6353,5748 6370,5740 6388,5731 6405,5716 6423,5721 6440,5716 6458,5708 6475,5719 6493,5731 6510,5708 6528,5704 6546,5869 6563,5710 6581,5619 6598,5721 6616,5721 6633,5673 6651,5701 6668,5654 6686,5535 6703,5509 6721,5437 6739,5688 6756,5681 6774,5675 6791,5652 6809,5653 6826,5704 6844,5680 6861,5662 6879,5658 6896,5514 6914,5441 6931,5359 6949,5309 6967,5331 6984,5440 7002,5572 7019,5320 7037,5492 7054,5511 7072,5511 7089,5492 7107,5511 7124,5513 7142,5576 7159,5578 7177,5540 7195,5520 7212,5544 7230,5465 7247,5467 7265,5495 7282,5443 7300,5372 7317,5500 7335,5591 7352,5542 7370,5569 7388,5590 7405,5615 7423,5622 7440,5607 7458,5606 7475,5592 7493,5620 7510,5598 7528,5549 7545,5627 7563,5622 7580,5621 7598,5599 7616,5547 7633,5571 7651,5585 7668,5606 7686,5588 7703,5585 7721,5523 7738,5538 7756,5478 7773,5511 7791,5556 7808,5590 7826,5513 7844,5444 7861,5525 7879,5588 7896,5489 7914,5515 7931,5512 7949,5528 7966,5459 7984,5403 8000,5536 8018,5464 8035,5488 8053,5458 8071,5473 8088,5442 8106,5466 8123,5527 8141,5499 8158,5533 8176,5468 8193,5440 8211,5343 8228,5398 8246,5529 8264,5507 8281,5433 8299,5358 8316,5455 8334,5447 8351,5395 8369,5371 8386,5582 8404,5317 8421,5463 8439,5392 8456,5388 8474,5471 8492,5381 8509,5447 8527,5349 8544,5365 8562,5336 8579,5422 8597,5319 8614,5307 8632,5296 8649,5399 8667,5332 8684,5452 8702,5297 8720,5413 8737,5407 8755,5463 8772,5463 8790,5490 8807,5478 8825,5232 8842,5328 8860,5424 8877,5364 8895,5375 8913,5282 8930,5281 8948,5306 8965,5308 8983,5366 9000,5341 9018,5370 9035,5323 9053,5376 9070,5443 9088,5446 9105,5372 9123,5479 9141,5449 9158,5382 9176,5383 9193,5358 9211,5385 9228,5471 9246,5444 9263,5367 9281,5358 9298,5361 9316,5370 9333,5366 9351,5362 9369,5442 9386,5601 9404,5097 9421,5069 9439,5067 9456,5118 9474,5126 9491,5370 9509,5429 9526,5414 9544,5422 9561,5471 9579,5397 9597,5642 9614,5564 9632,5555 9649,5348 9667,5379 9684,5362 9702,5388 9719,5415 9737,5361 9754,5377 9772,5447 9790,5346 9807,5554 9825,5581 9842,5592 9860,5572 9877,5379 9895,5348 9912,5323 9930,5300 9947,5275 9965,5350 9982,5523 10000,5510 10018,5492 10035,5334 10053,5285 10070,5459 10088,5462 10105,5452 10123,5476 10140,5369 10158,5339 10175,5299 10193,5307 10210,5324 10228,5273 10246,5323 10263,5490 10281,5489 10298,5495 10316,5495 10333,5495 10351,5475 10368,5483 10386,5504 10403,5498 10421,5462 10439,5466 10456,5423 10474,5415 10491,5430 10509,5470 10526,5476 10544,5495 10561,5478 10579,5437 10596,5405 10614,5341 10631,5361 10649,5401 10667,5468 10684,5466 10702,5415 10719,5376 10737,5418 10754,5418 10772,5418 10789,5418 10807,5418 10824,5418 10842,5359 10859,5321 10877,5387 10895,5372 10912,5362 10930,5370 10947,5373 10965,5339 10982,5345 11000,5372 11017,5324 11035,5335 11052,5342 11070,5243 11087,5281 11105,5300 11123,5582 11140,5466 11158,5470 11175,5476 11193,5450 11210,5474 11228,5456 11245,5564 11263,5556 11280,5524 11298,5528 11316,5438 11333,5495 11351,5623 11368,5553 11386,5568 11403,5549 11421,5513 11438,5406 11456,5373 11473,5636 11491,5682 11508,5653 11526,5625 11544,5633 11561,5616 11579,5586 11596,5673 11614,5696 11631,5668 11649,5688 11666,5669 11684,5698 11701,5654 11719,5605 11736,5695 11754,5901 11772,5891 11789,5894 11807,6091 11824,6090 11842,6121 11859,6111 11877,5907 11894,5910 11912,5914 11929,6097 11947,6088 11965,6085 11982,6067 12000,6021 12017,6032 12035,6040 12052,6039 12070,6046 12087,6039 12105,6043 12122,6039 12140,6029 12157,6015 12175,5922 12193,5983 12210,5965 12228,6099 12245,6030 12263,6110 12280,6113 12298,6083 12315,6061 12333,6057 12350,5942 12368,6060 12385,6070 12403,6070 12421,6086 12438,6070 12456,6073 12473,5935 12491,5924 12508,5903 12526,5941 12543,5922 12561,5920 12578,5952 12596,5910 12613,5918 12631,5990 12649,5908 12666,5834 12684,6007 12701,6026 12719,5975 12736,5953 12754,5931 12771,5950 12789,5946 12806,5965 12824,5971 12842,5949 12859,5962 12877,5935 12894,5957 12912,5943 12929,5925 12947,5930 12964,5925 12982,6030 12999,6051 13017,6045 13034,6054 13052,6037 13070,6045 13087,6057 13105,5960 13122,5966 13140,5990 13157,5734 13175,5725 13192,5312 13210,5457 13227,5440 13245,5400 13262,5327 13280,5352 13298,5259 13315,5362 13333,5443 13350,5386 13368,5497 13385,5498 13403,5379 13420,5544 13438,5451 13455,5700 13473,5696 13491,5679 13508,5695 13526,5640 13543,5616 13561,5463 13578,5601 13596,5619 13613,5605 13631,5645 13648,5560 13666,5405 13683,5479 13701,5732 13719,5708 13736,5738 13754,5713 13771,5350 13789,5594 13806,5467 13824,5466 13841,5370 13859,5374 13876,5386 13894,5370 13911,5350 13929,5354 13947,5378 13964,5384 13982,5394 13999,5384 14017,5391 14034,5356 14052,5320 14069,5256 14087,5325 14104,5269 14122,5265 14139,5284 14157,5438 14175,5318 14192,5316 14210,5401 14227,5627 14245,5582 14262,5474 14280,5513 14297,5453 14315,5450 14332,5481 14350,5496 14368,5395 14385,5661 14403,5495 14420,5533 14438,5497 14455,5492 14473,5499 14490,5486 14508,5479 14525,5478 14543,5572 14560,5573 14578,5341 14596,5341 14613,5341 14631,4727 14648,5513 14666,5381 14683,5309 14701,5747 14718,5690 14736,5609 14753,5465 14771,5449 14788,5694 14806,5737 14824,5852 14841,5765 14859,5753 14876,5800 14894,5840 14911,5844 14929,5806 14946,5708 14964,5717 14981,5687 14999,5716 15017,5701 15034,5645 15052,5654 15069,5703 15087,5715 15104,5671 15122,5658 15139,5813 15157,5758 15174,5775 15192,5784 15209,5790 15227,5726 15245,5752 15262,5769 15280,5801 15297,5794 15315,5792 15332,5812 15350,5785 15367,5821 15385,5803 15402,5767 15420,5781 15437,5824 15455,5822 15473,5808 15490,5754 15508,5700 15525,5707 15543,5678 15560,5646 15578,5647 15595,5656 15613,5663 15630,5741 15648,5763 15666,5714"/>
 <path fill="none" stroke="rgb(255,66,14)" stroke-width="40" stroke-linejoin="round" d="M 1284,7613 L 1301,7613 1319,7613 1336,7613 1354,7613 1371,7985 1389,7799 1406,7985 1424,7985 1441,7799 1459,7985 1476,7799 1494,7985 1512,8172 1529,8172 1547,8172 1564,7985 1582,7985 1599,7985 1617,7985 1634,7985 1652,7985 1669,7985 1687,7985 1704,7985 1722,7985 1740,7985 1757,7985 1775,8172 1792,7985 1810,8172 1827,7985 1845,7985 1862,7985 1880,7985 1897,7985 1915,7985 1932,7985 1950,7799 1968,7985 1985,7985 2003,8172 2020,7985 2038,7985 2055,7985 2073,7985 2090,7985 2108,7985 2125,7799 2143,7799 2161,7799 2178,7799 2196,8172 2213,7985 2231,8172 2248,7985 2266,7985 2283,7799 2301,7985 2318,7985 2336,7985 2353,7985 2371,7985 2389,7985 2406,7985 2424,8172 2441,7799 2459,7799 2476,7799 2494,7799 2511,7799 2529,7799 2546,7799 2564,7799 2581,7799 2599,7799 2617,7426 2634,7799 2652,7985 2669,7799 2687,7985 2704,7985 2722,7985 2739,7985 2757,7985 2774,7799 2792,7985 2810,7985 2827,7985 2845,7985 2862,7985 2880,7985 2897,8172 2915,8172 2932,8172 2950,8172 2967,7985 2985,8172 3002,7985 3020,7985 3038,7985 3055,7985 3073,7985 3090,7613 3108,7613 3125,7799 3143,7799 3160,7799 3178,7799 3195,7613 3213,7613 3230,7613 3248,7799 3266,7799 3283,7613 3301,7613 3318,7799 3336,7613 3353,7426 3371,7613 3388,7799 3406,7799 3423,7613 3441,7799 3458,7799 3476,7613 3494,7799 3511,7799 3529,7613 3546,7799 3564,7613 3581,7613 3599,7613 3616,7613 3634,7613 3651,7613 3669,7799 3687,7799 3704,7799 3722,7799 3739,7799 3757,7799 3774,7799 3792,7613 3809,7799 3827,7799 3844,7799 3862,7985 3879,7985 3897,7985 3915,7985 3932,7799 3950,7985 3967,8172 3985,7985 4002,7799 4020,7799 4037,7799 4055,7985 4072,7985 4090,7985 4107,7985 4125,7799 4143,7985 4160,7799 4178,7985 4195,7985 4213,7799 4230,8172 4248,7985 4265,7985 4283,7799 4300,7799 4318,7799 4336,7799 4353,7985 4371,7985 4388,7985 4406,7985 4423,7985 4441,7985 4458,7985 4476,7985 4493,7985 4511,7985 4528,7985 4546,7985 4564,7985 4581,7985 4599,7985 4616,7985 4634,7799 4651,7985 4669,7799 4686,7985 4704,7985 4721,7985 4739,8172 4756,8172 4774,7985 4792,8172 4809,7985 4827,7985 4844,8358 4862,8172 4879,8172 4897,8172 4914,8172 4932,7985 4949,8172 4967,8172 4984,8172 5002,8172 5020,8172 5037,8172 5055,7985 5072,8172 5090,7985 5107,7985 5125,8172 5142,8172 5160,7985 5177,7985 5195,7985 5213,7985 5230,8172 5248,8172 5265,8172 5283,8172 5300,8172 5318,8172 5335,8172 5353,8172 5370,8172 5388,8172 5405,8172 5423,8172 5441,7985 5458,8172 5476,8172 5493,7985 5511,8172 5528,8172 5546,8172 5563,7985 5581,8172 5598,7985 5616,7985 5633,7985 5651,7985 5669,7985 5686,7985 5704,7985 5721,7985 5739,8172 5756,7985 5774,7985 5791,8172 5809,7985 5826,7985 5844,7985 5862,7985 5879,7985 5897,7985 5914,7985 5932,7985 5949,7985 5967,7985 5984,7985 6002,8172 6019,8172 6037,7985 6054,8172 6072,7985 6090,7985 6107,7985 6125,7985 6142,7985 6160,7985 6177,7985 6195,8172 6212,8358 6230,8172 6247,8172 6265,8172 6282,8358 6300,8358 6318,8358 6335,8358 6353,8358 6370,8172 6388,8358 6405,8358 6423,8358 6440,8358 6458,8358 6475,8358 6493,8358 6510,8358 6528,8358 6546,8358 6563,8358 6581,8358 6598,8358 6616,8358 6633,8358 6651,8358 6668,7985 6686,8172 6703,7985 6721,7985 6739,8172 6756,8172 6774,8172 6791,8172 6809,8172 6826,8172 6844,7985 6861,8172 6879,8172 6896,8172 6914,8172 6931,7985 6949,7799 6967,7799 6984,7799 7002,7985 7019,7985 7037,7985 7054,7985 7072,7985 7089,7985 7107,7985 7124,7985 7142,7985 7159,7799 7177,7799 7195,7799 7212,7985 7230,7799 7247,7985 7265,7985 7282,7799 7300,7799 7317,7799 7335,7985 7352,7799 7370,7985 7388,7985 7405,8172 7423,7985 7440,7985 7458,7985 7475,7985 7493,7985 7510,7799 7528,7985 7545,7985 7563,7985 7580,7985 7598,8172 7616,7985 7633,8172 7651,8172 7668,7985 7686,8172 7703,8172 7721,7985 7738,7985 7756,7799 7773,7799 7791,7799 7808,7985 7826,7985 7844,7799 7861,7985 7879,7985 7896,7799 7914,7799 7931,7799 7949,7799 7966,7799 7984,7799 8000,7799 8018,7613 8035,7799 8053,7799 8071,7799 8088,7799 8106,7799 8123,7799 8141,7799 8158,7799 8176,7799 8193,7799 8211,7799 8228,7985 8246,7799 8264,7799 8281,7799 8299,7799 8316,7799 8334,7799 8351,7799 8369,7799 8386,7985 8404,7799 8421,7799 8439,7799 8456,7799 8474,7799 8492,7799 8509,7799 8527,7799 8544,7799 8562,7799 8579,7799 8597,7799 8614,7799 8632,7799 8649,7799 8667,7799 8684,7799 8702,7799 8720,7799 8737,7799 8755,7799 8772,7799 8790,7799 8807,7985 8825,7613 8842,7799 8860,7799 8877,7799 8895,7613 8913,7613 8930,7426 8948,7613 8965,7613 8983,7426 9000,7799 9018,7799 9035,7799 9053,7613 9070,7799 9088,7799 9105,7799 9123,7613 9141,7613 9158,7613 9176,7613 9193,7613 9211,7613 9228,7613 9246,7613 9263,7613 9281,7613 9298,7613 9316,7613 9333,7426 9351,7426 9369,7613 9386,7985 9404,7613 9421,7426 9439,7426 9456,7426 9474,7613 9491,7613 9509,7799 9526,7799 9544,7799 9561,7799 9579,7799 9597,7985 9614,7799 9632,7799 9649,7799 9667,7799 9684,7799 9702,7799 9719,7799 9737,7799 9754,7799 9772,7799 9790,7799 9807,7799 9825,7799 9842,7799 9860,7799 9877,7613 9895,7426 9912,7613 9930,7426 9947,7426 9965,7426 9982,7985 10000,7799 10018,7799 10035,7613 10053,7613 10070,7799 10088,7799 10105,7799 10123,7985 10140,7613 10158,7613 10175,7426 10193,7613 10210,7613 10228,7426 10246,7613 10263,7799 10281,7799 10298,7799 10316,7985 10333,7799 10351,7799 10368,7799 10386,7985 10403,7985 10421,7799 10439,7985 10456,7799 10474,7799 10491,7985 10509,7799 10526,7799 10544,7799 10561,7799 10579,7799 10596,7799 10614,7613 10631,7799 10649,7985 10667,7799 10684,7985 10702,7985 10719,7799 10737,7799 10754,7799 10772,7799 10789,7799 10807,7799 10824,7799 10842,7985 10859,7985 10877,7799 10895,7799 10912,7799 10930,7799 10947,7799 10965,7799 10982,7799 11000,7799 11017,7799 11035,7799 11052,7799 11070,7799 11087,7799 11105,7799 11123,7985 11140,7799 11158,7799 11175,7799 11193,7799 11210,7985 11228,7799 11245,8172 11263,7985 11280,7985 11298,7985 11316,7799 11333,7799 11351,7985 11368,7985 11386,7985 11403,7799 11421,7985 11438,7799 11456,7799 11473,7799 11491,7799 11508,7799 11526,7799 11544,7799 11561,7799 11579,7799 11596,7799 11614,7799 11631,7799 11649,7799 11666,7799 11684,7985 11701,7985 11719,7799 11736,7985 11754,7985 11772,7985 11789,7799 11807,8358 11824,8358 11842,8358 11859,8358 11877,7985 11894,7985 11912,7799 11929,8172 11947,8172 11965,8172 11982,8358 12000,8172 12017,8172 12035,8172 12052,8172 12070,8172 12087,8172 12105,8172 12122,8172 12140,8172 12157,8172 12175,8172 12193,8172 12210,8172 12228,8172 12245,8172 12263,8172 12280,8172 12298,8358 12315,8358 12333,8172 12350,8358 12368,8172 12385,8358 12403,8172 12421,8358 12438,8358 12456,8358 12473,8172 12491,8172 12508,8172 12526,8172 12543,8172 12561,8172 12578,8172 12596,8358 12613,8172 12631,8172 12649,8172 12666,8172 12684,8172 12701,8172 12719,8358 12736,8172 12754,8172 12771,8172 12789,8172 12806,8358 12824,8172 12842,8358 12859,8358 12877,8172 12894,8172 12912,8172 12929,8172 12947,8358 12964,8172 12982,8172 12999,8358 13017,8172 13034,8358 13052,8358 13070,8172 13087,8358 13105,8172 13122,8172 13140,8172 13157,8172 13175,8172 13192,7985 13210,7985 13227,7985 13245,7985 13262,8172 13280,8172 13298,7799 13315,7799 13333,7613 13350,7799 13368,7613 13385,7613 13403,7799 13420,8358 13438,8358 13455,8544 13473,8358 13491,8358 13508,8358 13526,8358 13543,7985 13561,7985 13578,7985 13596,7985 13613,7985 13631,7985 13648,7985 13666,8358 13683,8358 13701,7985 13719,7799 13736,7985 13754,8172 13771,8358 13789,7985 13806,7985 13824,7799 13841,7799 13859,7985 13876,8172 13894,8172 13911,8172 13929,8172 13947,8358 13964,7985 13982,7985 13999,8358 14017,8358 14034,8172 14052,7613 14069,7426 14087,7799 14104,7613 14122,7613 14139,7613 14157,8358 14175,8358 14192,7985 14210,7985 14227,7985 14245,8172 14262,7985 14280,8172 14297,8172 14315,8172 14332,8172 14350,8172 14368,8172 14385,8172 14403,7985 14420,7799 14438,7985 14455,7799 14473,7985 14490,7799 14508,7985 14525,7985 14543,7985 14560,7985 14578,7985 14596,7985 14613,7985 14631,7985 14648,7799 14666,7985 14683,7985 14701,7985 14718,7985 14736,7985 14753,7985 14771,7985 14788,8172 14806,8172 14824,8172 14841,8172 14859,7985 14876,8172 14894,8172 14911,8172 14929,8172 14946,7985 14964,8172 14981,7985 14999,7985 15017,8172 15034,7985 15052,7985 15069,7985 15087,8172 15104,7985 15122,7985 15139,8172 15157,8172 15174,8172 15192,8172 15209,8172 15227,7985 15245,7985 15262,8172 15280,8172 15297,8172 15315,8172 15332,8172 15350,8172 15367,8172 15385,8172 15402,8358 15420,8172 15437,8172 15455,8172 15473,8172 15490,8172 15508,7985 15525,8172 15543,8172 15560,8172 15578,8172 15595,8172 15613,8358 15630,8358 15648,8358 15666,8358"/>
 <path fill="none" stroke="rgb(255,211,32)" stroke-width="40" stroke-linejoin="round" d="M 1284,2398 L 1301,2398 1319,2398 1336,2398 1354,2398 1371,1653 1389,1839 1406,2398 1424,2211 1441,2211 1459,2025 1476,2211 1494,2584 1512,2398 1529,2584 1547,2584 1564,2584 1582,2584 1599,2398 1617,2770 1634,2584 1652,2584 1669,2584 1687,2770 1704,2584 1722,2398 1740,2211 1757,2211 1775,2584 1792,2398 1810,2398 1827,2398 1845,2211 1862,2398 1880,2211 1897,2211 1915,2398 1932,2398 1950,2398 1968,2398 1985,2398 2003,2398 2020,2398 2038,2398 2055,2398 2073,2398 2090,2398 2108,2398 2125,2211 2143,1653 2161,1839 2178,1653 2196,1839 2213,1839 2231,1839 2248,1839 2266,1839 2283,1653 2301,2025 2318,2025 2336,1839 2353,1839 2371,2025 2389,2025 2406,1839 2424,2025 2441,2025 2459,2025 2476,2211 2494,2211 2511,2211 2529,2025 2546,2025 2564,2025 2581,2211 2599,2025 2617,2025 2634,2025 2652,2025 2669,2025 2687,2025 2704,2025 2722,2025 2739,2025 2757,2025 2774,1839 2792,1839 2810,2025 2827,1839 2845,2025 2862,2025 2880,2025 2897,2025 2915,2025 2932,2025 2950,2025 2967,1839 2985,1280 3002,1839 3020,1839 3038,2211 3055,2211 3073,2398 3090,2398 3108,2211 3125,2211 3143,2211 3160,2584 3178,2025 3195,1839 3213,1839 3230,1839 3248,2025 3266,1839 3283,1839 3301,2025 3318,2025 3336,2025 3353,2025 3371,2025 3388,2025 3406,1839 3423,1839 3441,1839 3458,1839 3476,2025 3494,1839 3511,1466 3529,1466 3546,1466 3564,1466 3581,1280 3599,1466 3616,1280 3634,1653 3651,1280 3669,1466 3687,1466 3704,1280 3722,1653 3739,1839 3757,2025 3774,2025 3792,2025 3809,2025 3827,2025 3844,2025 3862,2025 3879,2025 3897,2025 3915,2025 3932,2211 3950,2211 3967,2025 3985,2211 4002,2211 4020,2398 4037,2398 4055,2211 4072,2025 4090,2211 4107,2025 4125,2211 4143,2025 4160,2211 4178,2025 4195,2398 4213,2398 4230,2211 4248,2211 4265,2398 4283,2211 4300,2398 4318,2211 4336,2211 4353,2398 4371,2584 4388,2398 4406,2398 4423,2584 4441,2211 4458,2398 4476,2398 4493,2398 4511,2398 4528,2584 4546,2211 4564,2211 4581,2398 4599,1839 4616,1839 4634,1839 4651,1839 4669,1839 4686,1839 4704,1653 4721,2584 4739,2584 4756,2584 4774,2584 4792,2584 4809,2584 4827,2398 4844,2584 4862,2770 4879,2584 4897,2584 4914,2398 4932,2398 4949,2398 4967,2584 4984,2584 5002,2584 5020,2584 5037,2398 5055,2398 5072,2584 5090,2584 5107,2584 5125,2584 5142,2584 5160,2584 5177,2584 5195,2211 5213,2584 5230,2584 5248,2584 5265,2584 5283,2584 5300,2398 5318,2584 5335,2584 5353,2584 5370,2584 5388,2584 5405,2584 5423,2584 5441,2584 5458,2770 5476,2584 5493,2584 5511,2770 5528,2584 5546,2584 5563,2584 5581,2770 5598,2584 5616,2584 5633,2584 5651,2584 5669,2584 5686,2770 5704,2584 5721,2770 5739,2770 5756,2584 5774,2584 5791,2584 5809,2584 5826,2584 5844,2770 5862,2770 5879,2770 5897,2584 5914,2584 5932,2584 5949,2584 5967,2584 5984,2770 6002,2584 6019,2584 6037,2398 6054,2584 6072,2584 6090,2584 6107,2584 6125,2584 6142,2584 6160,2584 6177,2584 6195,2584 6212,2584 6230,2584 6247,2584 6265,2770 6282,2770 6300,2584 6318,2584 6335,2584 6353,2770 6370,2584 6388,2770 6405,2584 6423,2770 6440,2770 6458,2584 6475,2770 6493,2584 6510,2770 6528,2584 6546,2957 6563,2770 6581,2584 6598,2584 6616,2584 6633,2770 6651,2770 6668,2770 6686,2584 6703,2584 6721,2398 6739,2770 6756,2770 6774,2770 6791,2770 6809,2770 6826,2770 6844,2770 6861,2770 6879,2770 6896,2584 6914,2584 6931,2398 6949,2398 6967,2398 6984,2398 7002,2584 7019,2398 7037,2398 7054,2584 7072,2584 7089,2584 7107,2584 7124,2584 7142,2584 7159,2584 7177,2584 7195,2584 7212,2584 7230,2584 7247,2584 7265,2584 7282,2584 7300,2398 7317,2770 7335,2770 7352,2770 7370,2770 7388,2770 7405,2957 7423,2957 7440,2957 7458,2957 7475,2770 7493,2770 7510,2770 7528,2770 7545,2957 7563,2957 7580,2957 7598,2770 7616,2770 7633,2957 7651,2957 7668,2957 7686,2957 7703,2957 7721,2770 7738,2770 7756,2584 7773,2770 7791,2770 7808,2957 7826,2770 7844,2584 7861,2770 7879,2770 7896,2770 7914,2770 7931,2770 7949,2770 7966,2584 7984,2398 8000,2770 8018,2770 8035,2770 8053,2584 8071,2584 8088,2398 8106,2398 8123,2770 8141,2770 8158,2770 8176,2770 8193,2584 8211,2398 8228,2398 8246,2770 8264,2770 8281,2584 8299,2398 8316,2398 8334,2398 8351,2211 8369,2398 8386,2770 8404,2025 8421,2398 8439,2211 8456,2211 8474,2398 8492,2211 8509,2211 8527,2211 8544,2211 8562,2211 8579,2398 8597,2025 8614,2025 8632,2025 8649,2398 8667,2211 8684,2398 8702,2211 8720,2211 8737,2211 8755,2398 8772,2398 8790,2398 8807,2398 8825,2211 8842,2211 8860,2211 8877,2211 8895,2211 8913,2025 8930,2211 8948,2025 8965,2025 8983,2211 9000,2211 9018,2025 9035,2211 9053,2211 9070,2398 9088,2211 9105,2211 9123,2398 9141,2398 9158,2211 9176,2211 9193,2211 9211,2211 9228,2398 9246,2398 9263,2025 9281,2211 9298,2211 9316,2211 9333,2211 9351,2211 9369,2211 9386,2584 9404,1466 9421,1466 9439,1466 9456,1466 9474,1653 9491,2025 9509,2025 9526,2211 9544,2211 9561,2211 9579,2211 9597,2398 9614,2398 9632,2398 9649,2211 9667,2211 9684,2025 9702,2211 9719,2025 9737,2025 9754,2025 9772,2211 9790,2211 9807,2584 9825,2398 9842,2398 9860,2398 9877,1653 9895,1839 9912,1839 9930,1653 9947,1653 9965,1839 9982,2025 10000,2025 10018,2025 10035,1653 10053,1653 10070,2025 10088,2025 10105,1839 10123,1839 10140,1653 10158,1653 10175,1653 10193,1466 10210,1653 10228,1653 10246,1653 10263,2025 10281,2025 10298,2025 10316,2025 10333,2025 10351,2025 10368,2025 10386,2211 10403,2211 10421,2025 10439,2025 10456,2025 10474,2211 10491,2398 10509,2398 10526,2398 10544,2398 10561,2398 10579,2398 10596,2211 10614,2211 10631,2025 10649,2211 10667,2211 10684,2211 10702,2211 10719,2211 10737,2398 10754,2398 10772,2398 10789,2398 10807,2398 10824,2398 10842,2211 10859,2211 10877,2398 10895,2398 10912,2211 10930,2398 10947,2398 10965,2025 10982,2211 11000,2211 11017,2211 11035,2211 11052,2211 11070,2025 11087,2025 11105,2025 11123,2398 11140,2398 11158,2398 11175,2398 11193,2211 11210,2211 11228,2211 11245,2398 11263,2398 11280,2398 11298,2398 11316,2025 11333,2025 11351,2398 11368,2211 11386,2211 11403,2211 11421,2211 11438,2025 11456,1839 11473,2398 11491,2398 11508,2398 11526,1653 11544,1653 11561,1653 11579,1653 11596,1839 11614,2398 11631,2025 11649,2398 11666,2211 11684,2398 11701,2025 11719,1280 11736,1466 11754,2770 11772,2770 11789,2770 11807,2957 11824,2957 11842,2957 11859,2398 11877,2025 11894,2025 11912,2025 11929,2957 11947,2957 11965,2957 11982,2770 12000,2398 12017,2770 12035,2957 12052,2957 12070,2957 12087,2770 12105,2957 12122,2398 12140,2398 12157,2025 12175,2398 12193,2398 12210,1653 12228,2398 12245,1839 12263,2398 12280,2584 12298,2398 12315,2957 12333,2770 12350,2398 12368,2957 12385,2957 12403,2770 12421,2957 12438,2957 12456,2211 12473,2025 12491,2025 12508,2025 12526,1653 12543,2025 12561,1839 12578,1839 12596,2025 12613,2025 12631,2398 12649,2025 12666,2025 12684,1839 12701,2025 12719,1653 12736,1653 12754,1653 12771,2211 12789,2211 12806,2398 12824,2398 12842,2398 12859,2025 12877,1839 12894,2025 12912,2211 12929,2025 12947,2211 12964,2025 12982,2398 12999,2398 13017,2398 13034,2398 13052,2398 13070,2398 13087,2398 13105,2211 13122,2211 13140,2211 13157,2211 13175,2211 13192,1653 13210,1839 13227,1839 13245,2025 13262,1839 13280,1839 13298,1839 13315,1839 13333,2025 13350,1653 13368,2025 13385,2025 13403,2025 13420,1839 13438,1653 13455,2025 13473,2025 13491,2025 13508,2025 13526,2025 13543,2025 13561,1839 13578,1466 13596,2025 13613,2211 13631,2025 13648,1466 13666,1094 13683,1094 13701,1466 13719,1466 13736,1466 13754,1466 13771,1094 13789,1280 13806,1094 13824,1094 13841,907 13859,1094 13876,1094 13894,721 13911,721 13929,721 13947,907 13964,721 13982,907 13999,907 14017,907 14034,721 14052,721 14069,721 14087,721 14104,721 14122,721 14139,721 14157,721 14175,907 14192,721 14210,907 14227,1094 14245,1094 14262,907 14280,907 14297,907 14315,907 14332,907 14350,907 14368,721 14385,907 14403,721 14420,907 14438,907 14455,907 14473,907 14490,907 14508,721 14525,907 14543,1094 14560,1094 14578,1094 14596,1094 14613,1094 14631,1094 14648,721 14666,721 14683,535 14701,1094 14718,907 14736,907 14753,535 14771,535 14788,535 14806,349 14824,1466 14841,1280 14859,1280 14876,1280 14894,1280 14911,1280 14929,1280 14946,1094 14964,1094 14981,1094 14999,1280 15017,1280 15034,907 15052,1094 15069,1094 15087,1094 15104,1094 15122,1094 15139,1466 15157,1466 15174,1466 15192,1466 15209,1466 15227,1280 15245,1466 15262,1466 15280,1466 15297,1466 15315,1280 15332,1280 15350,1653 15367,1280 15385,1466 15402,1280 15420,1466 15437,1466 15455,1466 15473,1466 15490,1280 15508,1280 15525,1280 15543,1094 15560,1094 15578,1094 15595,1094 15613,1094 15630,1280 15648,1280 15666,1094"/>
 <text class="TextShape"><tspan class="TextParagraph" font-family="Liberation Sans, sans-serif" font-size="353px" font-weight="400"><tspan class="TextPosition" x="664" y="8851"><tspan fill="rgb(0,0,0)" stroke="none">10</tspan></tspan></tspan></text>
 <text class="TextShape"><tspan class="TextParagraph" font-family="Liberation Sans, sans-serif" font-size="353px" font-weight="400"><tspan class="TextPosition" x="664" y="7919"><tspan fill="rgb(0,0,0)" stroke="none">15</tspan></tspan></tspan></text>
 <text class="TextShape"><tspan class="TextParagraph" font-family="Liberation Sans, sans-serif" font-size="353px" font-weight="400"><tspan class="TextPosition" x="664" y="6988"><tspan fill="rgb(0,0,0)" stroke="none">20</tspan></tspan></tspan></text>
 <text class="TextShape"><tspan class="TextParagraph" font-family="Liberation Sans, sans-serif" font-size="353px" font-weight="400"><tspan class="TextPosition" x="664" y="6056"><tspan fill="rgb(0,0,0)" stroke="none">25</tspan></tspan></tspan></text>
 <text class="TextShape"><tspan class="TextParagraph" font-family="Liberation Sans, sans-serif" font-size="353px" font-weight="400"><tspan class="TextPosition" x="664" y="5125"><tspan fill="rgb(0,0,0)" stroke="none">30</tspan></tspan></tspan></text>
 <text class="TextShape"><tspan class="TextParagraph" font-family="Liberation Sans, sans-serif" font-size="353px" font-weight="400"><tspan class="TextPosition" x="664" y="4193"><tspan fill="rgb(0,0,0)" stroke="none">35</tspan></tspan></tspan></text>
 <text class="TextShape"><tspan class="TextParagraph" font-family="Liberation Sans, sans-serif" font-size="353px" font-weight="400"><tspan class="TextPosition" x="664" y="3262"><tspan fill="rgb(0,0,0)" stroke="none">40</tspan></tspan></tspan></text>
 <text class="TextShape"><tspan class="TextParagraph" font-family="Liberation Sans, sans-serif" font-size="353px" font-weight="400"><tspan class="TextPosition" x="664" y="2330"><tspan fill="rgb(0,0,0)" stroke="none">45</tspan></tspan></tspan></text>
 <text class="TextShape"><tspan class="TextParagraph" font-family="Liberation Sans, sans-serif" font-size="353px" font-weight="400"><tspan class="TextPosition" x="664" y="1399"><tspan fill="rgb(0,0,0)" stroke="none">50</tspan></tspan></tspan></text>
 <text class="TextShape"><tspan class="TextParagraph" font-family="Liberation Sans, sans-serif" font-size="353px" font-weight="400"><tspan class="TextPosition" x="664" y="468"><tspan fill="rgb(0,0,0)" stroke="none">55</tspan></tspan></tspan></text>
 <path fill="none" stroke="rgb(0,127,255)" stroke-width="80" stroke-linejoin="round" d="M 1777,3692 L 2577,3692"/>
 <path fill="none" stroke="rgb(255,66,14)" stroke-width="40" stroke-linejoin="round" d="M 6225,3692 L 7025,3692"/>
 <path fill="none" stroke="rgb(255,211,32)" stroke-width="40" stroke-linejoin="round" d="M 10857,3692 L 11657,3692"/>
 <text class="TextShape"><tspan class="TextParagraph" font-family="Liberation Sans, sans-serif" font-size="353px" font-weight="400"><tspan class="TextPosition" x="2677" y="3811"><tspan fill="rgb(0,0,0)" stroke="none">Temperatura media</tspan></tspan></tspan></text>
 <text class="TextShape"><tspan class="TextParagraph" font-family="Liberation Sans, sans-serif" font-size="353px" font-weight="400"><tspan class="TextPosition" x="7125" y="3811"><tspan fill="rgb(0,0,0)" stroke="none">Temperatura minima</tspan></tspan></tspan></text>
 <text class="TextShape"><tspan class="TextParagraph" font-family="Liberation Sans, sans-serif" font-size="353px" font-weight="400"><tspan class="TextPosition" x="11757" y="3811"><tspan fill="rgb(0,0,0)" stroke="none">Temperatura massima</tspan></tspan></tspan></text>
 <text class="TextShape" transform="translate(360,5653) rotate(-90) translate(-360,-5653)"><tspan class="TextParagraph" font-family="Liberation Sans, sans-serif" font-size="318px" font-weight="400"><tspan class="TextPosition" x="360" y="5653"><tspan fill="rgb(0,0,0)" stroke="none">Temperatura (°C)</tspan></tspan></tspan></text>
</svg>