<?xml version="1.0" encoding="UTF-8"?>
<!DOCTYPE svg PUBLIC "-//W3C//DTD SVG 1.1//EN" "http://www.w3.org/Graphics/SVG/1.1/DTD/svg11.dtd">
<svg width="160mm" height="90mm" viewBox="0 0 16000 9000" version="1.1" xmlns="http://www.w3.org/2000/svg" stroke-width="28.222" stroke-linejoin="round" xml:space="preserve">
 <path fill="rgb(255,255,255)" stroke="none" d="M 8045,8999 L 45,8999 45,0 16044,0 16044,8999 8045,8999 Z"/>
 <path fill="none" stroke="rgb(179,179,179)" stroke-linejoin="round" d="M 8520,8732 L 1329,8732 1329,350 15711,350 15711,8732 8520,8732 Z"/>
 <path fill="none" stroke="rgb(179,179,179)" stroke-linejoin="round" d="M 15710,8731 L 1329,8731"/>
 <path fill="none" stroke="rgb(179,179,179)" stroke-linejoin="round" d="M 15710,7799 L 1329,7799"/>
 <path fill="none" stroke="rgb(179,179,179)" stroke-linejoin="round" d="M 15710,6868 L 1329,6868"/>
 <path fill="none" stroke="rgb(179,179,179)" stroke-linejoin="round" d="M 15710,5936 L 1329,5936"/>
 <path fill="none" stroke="rgb(179,179,179)" stroke-linejoin="round" d="M 15710,5005 L 1329,5005"/>
 <path fill="none" stroke="rgb(179,179,179)" stroke-linejoin="round" d="M 15710,4074 L 1329,4074"/>
 <path fill="none" stroke="rgb(179,179,179)" stroke-linejoin="round" d="M 15710,3143 L 1329,3143"/>
 <path fill="none" stroke="rgb(179,179,179)" stroke-linejoin="round" d="M 15710,2211 L 1329,2211"/>
 <path fill="none" stroke="rgb(179,179,179)" stroke-linejoin="round" d="M 15710,1280 L 1329,1280"/>
 <path fill="none" stroke="rgb(179,179,179)" stroke-linejoin="round" d="M 15710,349 L 1329,349"/>
 <path fill="none" stroke="rgb(179,179,179)" stroke-linejoin="round" d="M 1179,8731 L 1329,8731"/>
 <path fill="none" stroke="rgb(179,179,179)" stroke-linejoin="round" d="M 1179,8731 L 1329,8731"/>
 <path fill="none" stroke="rgb(179,179,179)" stroke-linejoin="round" d="M 1179,7799 L 1329,7799"/>
 <path fill="none" stroke="rgb(179,179,179)" stroke-linejoin="round" d="M 1179,7799 L 1329,7799"/>
 <path fill="none" stroke="rgb(179,179,179)" stroke-linejoin="round" d="M 1179,6868 L 1329,6868"/>
 <path fill="none" stroke="rgb(179,179,179)" stroke-linejoin="round" d="M 1179,6868 L 1329,6868"/>
 <path fill="none" stroke="rgb(179,179,179)" stroke-linejoin="round" d="M 1179,5936 L 1329,5936"/>
 <path fill="none" stroke="rgb(179,179,179)" stroke-linejoin="round" d="M 1179,5936 L 1329,5936"/>
 <path fill="none" stroke="rgb(179,179,179)" stroke-linejoin="round" d="M 1179,5005 L 1329,5005"/>
 <path fill="none" stroke="rgb(179,179,179)" stroke-linejoin="round" d="M 1179,5005 L 1329,5005"/>
 <path fill="none" stroke="rgb(179,179,179)" stroke-linejoin="round" d="M 1179,4074 L 1329,4074"/>
 <path fill="none" stroke="rgb(179,179,179)" stroke-linejoin="round" d="M 1179,4074 L 1329,4074"/>
 <path fill="none" stroke="rgb(179,179,179)" stroke-linejoin="round" d="M 1179,3143 L 1329,3143"/>
 <path fill="none" stroke="rgb(179,179,179)" stroke-linejoin="round" d="M 1179,3143 L 1329,3143"/>
 <path fill="none" stroke="rgb(179,179,179)" stroke-linejoin="round" d="M 1179,2211 L 1329,2211"/>
 <path fill="none" stroke="rgb(179,179,179)" stroke-linejoin="round" d="M 1179,2211 L 1329,2211"/>
 <path fill="none" stroke="rgb(179,179,179)" stroke-linejoin="round" d="M 1179,1280 L 1329,1280"/>
 <path fill="none" stroke="rgb(179,179,179)" stroke-linejoin="round" d="M 1179,1280 L 1329,1280"/>
 <path fill="none" stroke="rgb(179,179,179)" stroke-linejoin="round" d="M 1179,349 L 1329,349"/>
 <path fill="none" stroke="rgb(179,179,179)" stroke-linejoin="round" d="M 1179,349 L 1329,349"/>
 <path fill="none" stroke="rgb(179,179,179)" stroke-linejoin="round" d="M 1329,8731 L 1329,349"/>
 <path fill="none" stroke="rgb(0,127,255)" stroke-width="80" stroke-linejoin="round" d="M 1329,5653 L 1348,5635 1368,5634 1388,5641 1407,5647 1427,5607 1447,5626 1466,5686 1486,5636 1506,5631 1526,5641 1545,5649 1565,5713 1585,5672 1604,5733 1624,5717 1644,5694 1663,5715 1683,5661 1703,5698 1723,5730 1742,5758 1762,5741 1782,5739 1801,5740 1821,5697 1841,5702 1860,5672 1880,5681 1900,5698 1920,5636 1939,5674 1959,5606 1979,5644 1998,5579 2018,5652 2038,5683 2058,5641 2077,5550 2097,5567 2117,5660 2136,5693 2156,5657 2176,5659 2195,5644 2215,5640 2235,5640 2255,5655 2274,5573 2294,5534 2314,5532 2333,5528 2353,5583 2373,5585 2392,5584 2412,5580 2432,5622 2452,5552 2471,5527 2491,5634 2511,5638 2530,5578 2550,5568 2570,5596 2589,5579 2609,5584 2629,5542 2649,5540 2668,5549 2688,5514 2708,5529 2727,5516 2747,5477 2767,5453 2787,5536 2806,5530 2826,5494 2846,5395 2865,5499 2885,5538 2905,5479 2924,5517 2944,5576 2964,5533 2984,5487 3003,5438 3023,5454 3043,5530 3062,5495 3082,5488 3102,5568 3121,5505 3141,5514 3161,5523 3181,5518 3200,5549 3220,5536 3240,5437 3259,5402 3279,5391 3299,5552 3318,5544 3338,5559 3358,5530 3378,5510 3397,5560 3417,5472 3437,5657 3456,5440 3476,5321 3496,5389 3516,5307 3535,5449 3555,5329 3575,5388 3594,5385 3614,5344 3634,5344 3653,5213 3673,5333 3693,5291 3713,5426 3732,5410 3752,5411 3772,5384 3791,5345 3811,5423 3831,5259 3850,5299 3870,5325 3890,5258 3910,5205 3929,5211 3949,5220 3969,5240 3988,5237 4008,5336 4028,5254 4047,5250 4067,5289 4087,5257 4107,5350 4126,5362 4146,5331 4166,5376 4185,5406 4205,5515 4225,5504 4245,5469 4264,5452 4284,5456 4304,5517 4323,5466 4343,5474 4363,5505 4382,5493 4402,5587 4422,5565 4442,5559 4461,5537 4481,5601 4501,5502 4520,5552 4540,5603 4560,5522 4579,5564 4599,5547 4619,5626 4639,5571 4658,5510 4678,5497 4698,5556 4717,5510 4737,5462 4757,5465 4776,5568 4796,5615 4816,5537 4836,5524 4855,5524 4875,5569 4895,5636 4914,5580 4934,5550 4954,5613 4974,5607 4993,5548 5013,5585 5033,5584 5052,5458 5072,5427 5092,5417 5111,5439 5131,5439 5151,5444 5171,5429 5190,5653 5210,5651 5230,5660 5249,5658 5269,5674 5289,5653 5308,5603 5328,5715 5348,5706 5368,5655 5387,5707 5407,5708 5427,5644 5446,5643 5466,5649 5486,5628 5505,5641 5525,5637 5545,5623 5565,5633 5584,5639 5604,5647 5624,5638 5643,5633 5663,5646 5683,5631 5703,5623 5722,5634 5742,5628 5762,5655 5781,5619 5801,5615 5821,5610 5840,5621 5860,5615 5880,5620 5900,5607 5919,5621 5939,5621 5959,5647 5978,5630 5998,5627 6018,5630 6037,5639 6057,5612 6077,5626 6097,5620 6116,5620 6136,5630 6156,5628 6175,5619 6195,5620 6215,5632 6234,5617 6254,5643 6274,5647 6294,5638 6313,5660 6333,5644 6353,5625 6372,5638 6392,5631 6412,5636 6432,5617 6451,5621 6471,5639 6491,5629 6510,5595 6530,5610 6550,5613 6569,5609 6589,5628 6609,5644 6629,5627 6648,5631 6668,5606 6688,5613 6707,5603 6727,5612 6747,5613 6766,5606 6786,5602 6806,5602 6826,5547 6845,5722 6865,5717 6885,5733 6904,5729 6924,5734 6944,5747 6963,5737 6983,5744 7003,5733 7023,5748 7042,5740 7062,5731 7082,5716 7101,5721 7121,5716 7141,5708 7161,5719 7180,5731 7200,5708 7220,5704 7239,5869 7259,5710 7279,5619 7298,5721 7318,5721 7338,5673 7358,5701 7377,5654 7397,5535 7417,5509 7436,5437 7456,5688 7476,5681 7495,5675 7515,5652 7535,5653 7555,5704 7574,5680 7594,5662 7614,5658 7633,5514 7653,5441 7673,5359 7692,5309 7712,5331 7732,5440 7752,5572 7771,5320 7791,5492 7811,5511 7830,5511 7850,5492 7870,5511 7890,5513 7909,5576 7929,5578 7949,5540 7968,5520 7988,5544 8008,5465 8027,5467 8046,5495 8066,5443 8086,5372 8105,5500 8125,5591 8145,5542 8164,5569 8184,5590 8204,5615 8223,5622 8243,5607 8263,5606 8283,5592 8302,5620 8322,5598 8342,5549 8361,5627 8381,5622 8401,5621 8420,5599 8440,5547 8460,5571 8480,5585 8499,5606 8519,5588 8539,5585 8558,5523 8578,5538 8598,5478 8618,5511 8637,5556 8657,5590 8677,5513 8696,5444 8716,5525 8736,5588 8755,5489 8775,5515 8795,5512 8815,5528 8834,5459 8854,5403 8874,5536 8893,5464 8913,5488 8933,5458 8952,5473 8972,5442 8992,5466 9012,5527 9031,5499 9051,5533 9071,5468 9090,5440 9110,5343 9130,5398 9149,5529 9169,5507 9189,5433 9209,5358 9228,5455 9248,5447 9268,5395 9287,5371 9307,5582 9327,5317 9347,5463 9366,5392 9386,5388 9406,5471 9425,5381 9445,5447 9465,5349 9484,5365 9504,5336 9524,5422 9544,5319 9563,5307 9583,5296 9603,5399 9622,5332 9642,5452 9662,5297 9681,5413 9701,5407 9721,5463 9741,5463 9760,5490 9780,5478 9800,5232 9819,5328 9839,5424 9859,5364 9878,5375 9898,5282 9918,5281 9938,5306 9957,5308 9977,5366 9997,5341 10016,5370 10036,5323 10056,5376 10076,5443 10095,5446 10115,5372 10135,5479 10154,5449 10174,5382 10194,5383 10213,5358 10233,5385 10253,5471 10273,5444 10292,5367 10312,5358 10332,5361 10351,5370 10371,5366 10391,5362 10410,5442 10430,5601 10450,5097 10470,5069 10489,5067 10509,5118 10529,5126 10548,5370 10568,5429 10588,5414 10607,5422 10627,5471 10647,5397 10667,5642 10686,5564 10706,5555 10726,5348 10745,5379 10765,5362 10785,5388 10805,5415 10824,5361 10844,5377 10864,5447 10883,5346 10903,5554 10923,5581 10942,5592 10962,5572 10982,5379 11002,5348 11021,5323 11041,5300 11061,5275 11080,5350 11100,5523 11120,5510 11139,5492 11159,5334 11179,5285 11199,5459 11218,5462 11238,5452 11258,5476 11277,5369 11297,5339 11317,5299 11336,5307 11356,5324 11376,5273 11396,5323 11415,5490 11435,5489 11455,5495 11474,5495 11494,5495 11514,5475 11534,5483 11553,5504 11573,5498 11593,5462 11612,5466 11632,5423 11652,5415 11671,5430 11691,5470 11711,5476 11731,5495 11750,5478 11770,5437 11790,5405 11809,5341 11829,5361 11849,5401 11868,5468 11888,5466 11908,5415 11928,5376 11947,5418 11967,5348 11987,5330 12006,5344 12026,5360 12046,5300 12065,5359 12085,5321 12105,5387 12125,5372 12144,5362 12164,5370 12184,5373 12203,5339 12223,5345 12243,5372 12263,5324 12282,5335 12302,5342 12322,5243 12341,5281 12361,5300 12381,5582 12400,5466 12420,5470 12440,5476 12460,5450 12479,5474 12499,5456 12519,5564 12538,5556 12558,5524 12578,5528 12597,5438 12617,5495 12637,5623 12657,5553 12676,5568 12696,5549 12716,5513 12735,5406 12755,5373 12775,5636 12794,5682 12814,5653 12834,5625 12854,5633 12873,5616 12893,5586 12913,5673 12932,5696 12952,5668 12972,5688 12992,5669 13011,5698 13031,5654 13051,5605 13070,5695 13090,5901 13110,5891 13129,5894 13149,6091 13169,6090 13189,6121 13208,6111 13228,5907 13248,5910 13267,5914 13287,6097 13307,6088 13326,6085 13346,6067 13366,6021 13386,6032 13405,6040 13425,6039 13445,6046 13464,6039 13484,6043 13504,6039 13523,6029 13543,6015 13563,5922 13583,5983 13602,5965 13622,6099 13642,6030 13661,6110 13681,6113 13701,6083 13721,6061 13740,6057 13760,5942 13780,6060 13799,6070 13819,6070 13839,6086 13858,6070 13878,6073 13898,5935 13918,5924 13937,5903 13957,5941 13977,5922 13996,5920 14016,5952 14036,5910 14055,5918 14075,5990 14095,5908 14115,5834 14134,6007 14154,6026 14174,5975 14193,5953 14213,5931 14233,5950 14252,5946 14272,5965 14292,5971 14312,5949 14331,5962 14351,5935 14371,5957 14390,5943 14410,5925 14430,5930 14450,5925 14469,6030 14489,6051 14509,6045 14528,6054 14548,6037 14568,6045 14587,6057 14607,5960 14627,5966 14647,5990 14666,5734 14686,5725 14706,5312 14725,5457 14745,5440 14765,5400 14784,5327 14804,5352 14824,5259 14844,5362 14863,5443 14883,5386 14903,5497 14922,5498 14942,5379 14962,5544 14981,5451 15001,5700 15021,5696 15041,5679 15060,5695 15080,5640 15100,5616 15119,5463 15139,5601 15159,5619 15179,5605 15198,5645 15218,5560 15238,5405 15257,5479 15277,5732 15297,5708 15316,5738 15336,5713 15356,5350 15376,5594 15395,5467 15415,5466 15435,5370 15454,5374 15474,5386 15494,5370 15513,5350 15533,5354 15553,5378 15573,5384 15592,5394 15612,5384 15632,5391 15651,5356 15671,5320 15691,5256 15710,5325"/>
 <path fill="none" stroke="rgb(255,66,14)" stroke-width="40" stroke-linejoin="round" d="M 1329,7613 L 1348,7613 1368,7613 1388,7613 1407,7613 1427,7985 1447,7799 1466,7985 1486,7985 1506,7799 1526,7985 1545,7799 1565,7985 1585,8172 1604,8172 1624,8172 1644,7985 1663,7985 1683,7985 1703,7985 1723,7985 1742,7985 1762,7985 1782,7985 1801,7985 1821,7985 1841,7985 1860,7985 1880,8172 1900,7985 1920,8172 1939,7985 1959,7985 1979,7985 1998,7985 2018,7985 2038,7985 2058,7985 2077,7799 2097,7985 2117,7985 2136,8172 2156,7985 2176,7985 2195,7985 2215,7985 2235,7985 2255,7985 2274,7799 2294,7799 2314,7799 2333,7799 2353,8172 2373,7985 2392,8172 2412,7985 2432,7985 2452,7799 2471,7985 2491,7985 2511,7985 2530,7985 2550,7985 2570,7985 2589,7985 2609,8172 2629,7799 2649,7799 2668,7799 2688,7799 2708,7799 2727,7799 2747,7799 2767,7799 2787,7799 2806,7799 2826,7426 2846,7799 2865,7985 2885,7799 2905,7985 2924,7985 2944,7985 2964,7985 2984,7985 3003,7799 3023,7985 3043,7985 3062,7985 3082,7985 3102,7985 3121,7985 3141,8172 3161,8172 3181,8172 3200,8172 3220,7985 3240,8172 3259,7985 3279,7985 3299,7985 3318,7985 3338,7985 3358,7613 3378,7613 3397,7799 3417,7799 3437,7799 3456,7799 3476,7613 3496,7613 3516,7613 3535,7799 3555,7799 3575,7613 3594,7613 3614,7799 3634,7613 3653,7426 3673,7613 3693,7799 3713,7799 3732,7613 3752,7799 3772,7799 3791,7613 3811,7799 3831,7799 3850,7613 3870,7799 3890,7613 3910,7613 3929,7613 3949,7613 3969,7613 3988,7613 4008,7799 4028,7799 4047,7799 4067,7799 4087,7799 4107,7799 4126,7799 4146,7613 4166,7799 4185,7799 4205,7799 4225,7985 4245,7985 4264,7985 4284,7985 4304,7799 4323,7985 4343,8172 4363,7985 4382,7799 4402,7799 4422,7799 4442,7985 4461,7985 4481,7985 4501,7985 4520,7799 4540,7985 4560,7799 4579,7985 4599,7985 4619,7799 4639,8172 4658,7985 4678,7985 4698,7799 4717,7799 4737,7799 4757,7799 4776,7985 4796,7985 4816,7985 4836,7985 4855,7985 4875,7985 4895,7985 4914,7985 4934,7985 4954,7985 4974,7985 4993,7985 5013,7985 5033,7985 5052,7985 5072,7985 5092,7799 5111,7985 5131,7799 5151,7985 5171,7985 5190,7985 5210,8172 5230,8172 5249,7985 5269,8172 5289,7985 5308,7985 5328,8358 5348,8172 5368,8172 5387,8172 5407,8172 5427,7985 5446,8172 5466,8172 5486,8172 5505,8172 5525,8172 5545,8172 5565,7985 5584,8172 5604,7985 5624,7985 5643,8172 5663,8172 5683,7985 5703,7985 5722,7985 5742,7985 5762,8172 5781,8172 5801,8172 5821,8172 5840,8172 5860,8172 5880,8172 5900,8172 5919,8172 5939,8172 5959,8172 5978,8172 5998,7985 6018,8172 6037,8172 6057,7985 6077,8172 6097,8172 6116,8172 6136,7985 6156,8172 6175,7985 6195,7985 6215,7985 6234,7985 6254,7985 6274,7985 6294,7985 6313,7985 6333,8172 6353,7985 6372,7985 6392,8172 6412,7985 6432,7985 6451,7985 6471,7985 6491,7985 6510,7985 6530,7985 6550,7985 6569,7985 6589,7985 6609,7985 6629,8172 6648,8172 6668,7985 6688,8172 6707,7985 6727,7985 6747,7985 6766,7985 6786,7985 6806,7985 6826,7985 6845,8172 6865,8358 6885,8172 6904,8172 6924,8172 6944,8358 6963,8358 6983,8358 7003,8358 7023,8358 7042,8172 7062,8358 7082,8358 7101,8358 7121,8358 7141,8358 7161,8358 7180,8358 7200,8358 7220,8358 7239,8358 7259,8358 7279,8358 7298,8358 7318,8358 7338,8358 7358,8358 7377,7985 7397,8172 7417,7985 7436,7985 7456,8172 7476,8172 7495,8172 7515,8172 7535,8172 7555,8172 7574,7985 7594,8172 7614,8172 7633,8172 7653,8172 7673,7985 7692,7799 7712,7799 7732,7799 7752,7985 7771,7985 7791,7985 7811,7985 7830,7985 7850,7985 7870,7985 7890,7985 7909,7985 7929,7799 7949,7799 7968,7799 7988,7985 8008,7799 8027,7985 8046,7985 8066,7799 8086,7799 8105,7799 8125,7985 8145,7799 8164,7985 8184,7985 8204,8172 8223,7985 8243,7985 8263,7985 8283,7985 8302,7985 8322,7799 8342,7985 8361,7985 8381,7985 8401,7985 8420,8172 8440,7985 8460,8172 8480,8172 8499,7985 8519,8172 8539,8172 8558,7985 8578,7985 8598,7799 8618,7799 8637,7799 8657,7985 8677,7985 8696,7799 8716,7985 8736,7985 8755,7799 8775,7799 8795,7799 8815,7799 8834,7799 8854,7799 8874,7799 8893,7613 8913,7799 8933,7799 8952,7799 8972,7799 8992,7799 9012,7799 9031,7799 9051,7799 9071,7799 9090,7799 9110,7799 9130,7985 9149,7799 9169,7799 9189,7799 9209,7799 9228,7799 9248,7799 9268,7799 9287,7799 9307,7985 9327,7799 9347,7799 9366,7799 9386,7799 9406,7799 9425,7799 9445,7799 9465,7799 9484,7799 9504,7799 9524,7799 9544,7799 9563,7799 9583,7799 9603,7799 9622,7799 9642,7799 9662,7799 9681,7799 9701,7799 9721,7799 9741,7799 9760,7799 9780,7985 9800,7613 9819,7799 9839,7799 9859,7799 9878,7613 9898,7613 9918,7426 9938,7613 9957,7613 9977,7426 9997,7799 10016,7799 10036,7799 10056,7613 10076,7799 10095,7799 10115,7799 10135,7613 10154,7613 10174,7613 10194,7613 10213,7613 10233,7613 10253,7613 10273,7613 10292,7613 10312,7613 10332,7613 10351,7613 10371,7426 10391,7426 10410,7613 10430,7985 10450,7613 10470,7426 10489,7426 10509,7426 10529,7613 10548,7613 10568,7799 10588,7799 10607,7799 10627,7799 10647,7799 10667,7985 10686,7799 10706,7799 10726,7799 10745,7799 10765,7799 10785,7799 10805,7799 10824,7799 10844,7799 10864,7799 10883,7799 10903,7799 10923,7799 10942,7799 10962,7799 10982,7613 11002,7426 11021,7613 11041,7426 11061,7426 11080,7426 11100,7985 11120,7799 11139,7799 11159,7613 11179,7613 11199,7799 11218,7799 11238,7799 11258,7985 11277,7613 11297,7613 11317,7426 11336,7613 11356,7613 11376,7426 11396,7613 11415,7799 11435,7799 11455,7799 11474,7985 11494,7799 11514,7799 11534,7799 11553,7985 11573,7985 11593,7799 11612,7985 11632,7799 11652,7799 11671,7985 11691,7799 11711,7799 11731,7799 11750,7799 11770,7799 11790,7799 11809,7613 11829,7799 11849,7985 11868,7799 11888,7985 11908,7985 11928,7799 11947,7799 11967,7985 11987,7799 12006,7799 12026,7985 12046,7985 12065,7985 12085,7985 12105,7799 12125,7799 12144,7799 12164,7799 12184,7799 12203,7799 12223,7799 12243,7799 12263,7799 12282,7799 12302,7799 12322,7799 12341,7799 12361,7799 12381,7985 12400,7799 12420,7799 12440,7799 12460,7799 12479,7985 12499,7799 12519,8172 12538,7985 12558,7985 12578,7985 12597,7799 12617,7799 12637,7985 12657,7985 12676,7985 12696,7799 12716,7985 12735,7799 12755,7799 12775,7799 12794,7799 12814,7799 12834,7799 12854,7799 12873,7799 12893,7799 12913,7799 12932,7799 12952,7799 12972,7799 12992,7799 13011,7985 13031,7985 13051,7799 13070,7985 13090,7985 13110,7985 13129,7799 13149,8358 13169,8358 13189,8358 13208,8358 13228,7985 13248,7985 13267,7799 13287,8172 13307,8172 13326,8172 13346,8358 13366,8172 13386,8172 13405,8172 13425,8172 13445,8172 13464,8172 13484,8172 13504,8172 13523,8172 13543,8172 13563,8172 13583,8172 13602,8172 13622,8172 13642,8172 13661,8172 13681,8172 13701,8358 13721,8358 13740,8172 13760,8358 13780,8172 13799,8358 13819,8172 13839,8358 13858,8358 13878,8358 13898,8172 13918,8172 13937,8172 13957,8172 13977,8172 13996,8172 14016,8172 14036,8358 14055,8172 14075,8172 14095,8172 14115,8172 14134,8172 14154,8172 14174,8358 14193,8172 14213,8172 14233,8172 14252,8172 14272,8358 14292,8172 14312,8358 14331,8358 14351,8172 14371,8172 14390,8172 14410,8172 14430,8358 14450,8172 14469,8172 14489,8358 14509,8172 14528,8358 14548,8358 14568,8172 14587,8358 14607,8172 14627,8172 14647,8172 14666,8172 14686,8172 14706,7985 14725,7985 14745,7985 14765,7985 14784,8172 14804,8172 14824,7799 14844,7799 14863,7613 14883,7799 14903,7613 14922,7613 14942,7799 14962,8358 14981,8358 15001,8544 15021,8358 15041,8358 15060,8358 15080,8358 15100,7985 15119,7985 15139,7985 15159,7985 15179,7985 15198,7985 15218,7985 15238,8358 15257,8358 15277,7985 15297,7799 15316,7985 15336,8172 15356,8358 15376,7985 15395,7985 15415,7799 15435,7799 15454,7985 15474,8172 15494,8172 15513,8172 15533,8172 15553,8358 15573,7985 15592,7985 15612,8358 15632,8358 15651,8172 15671,7613 15691,7426 15710,7799"/>
 <path fill="none" stroke="rgb(255,211,32)" stroke-width="40" stroke-linejoin="round" d="M 1329,2398 L 1348,2398 1368,2398 1388,2398 1407,2398 1427,1653 1447,1839 1466,2398 1486,2211 1506,2211 1526,2025 1545,2211 1565,2584 1585,2398 1604,2584 1624,2584 1644,2584 1663,2584 1683,2398 1703,2770 1723,2584 1742,2584 1762,2584 1782,2770 1801,2584 1821,2398 1841,2211 1860,2211 1880,2584 1900,2398 1920,2398 1939,2398 1959,2211 1979,2398 1998,2211 2018,2211 2038,2398 2058,2398 2077,2398 2097,2398 2117,2398 2136,2398 2156,2398 2176,2398 2195,2398 2215,2398 2235,2398 2255,2398 2274,2211 2294,1653 2314,1839 2333,1653 2353,1839 2373,1839 2392,1839 2412,1839 2432,1839 2452,1653 2471,2025 2491,2025 2511,1839 2530,1839 2550,2025 2570,2025 2589,1839 2609,2025 2629,2025 2649,2025 2668,2211 2688,2211 2708,2211 2727,2025 2747,2025 2767,2025 2787,2211 2806,2025 2826,2025 2846,2025 2865,2025 2885,2025 2905,2025 2924,2025 2944,2025 2964,2025 2984,2025 3003,1839 3023,1839 3043,2025 3062,1839 3082,2025 3102,2025 3121,2025 3141,2025 3161,2025 3181,2025 3200,2025 3220,1839 3240,1280 3259,1839 3279,1839 3299,2211 3318,2211 3338,2398 3358,2398 3378,2211 3397,2211 3417,2211 3437,2584 3456,2025 3476,1839 3496,1839 3516,1839 3535,2025 3555,1839 3575,1839 3594,2025 3614,2025 3634,2025 3653,2025 3673,2025 3693,2025 3713,1839 3732,1839 3752,1839 3772,1839 3791,2025 3811,1839 3831,1466 3850,1466 3870,1466 3890,1466 3910,1280 3929,1466 3949,1280 3969,1653 3988,1280 4008,1466 4028,1466 4047,1280 4067,1653 4087,1839 4107,2025 4126,2025 4146,2025 4166,2025 4185,2025 4205,2025 4225,2025 4245,2025 4264,2025 4284,2025 4304,2211 4323,2211 4343,2025 4363,2211 4382,2211 4402,2398 4422,2398 4442,2211 4461,2025 4481,2211 4501,2025 4520,2211 4540,2025 4560,2211 4579,2025 4599,2398 4619,2398 4639,2211 4658,2211 4678,2398 4698,2211 4717,2398 4737,2211 4757,2211 4776,2398 4796,2584 4816,2398 4836,2398 4855,2584 4875,2211 4895,2398 4914,2398 4934,2398 4954,2398 4974,2584 4993,2211 5013,2211 5033,2398 5052,1839 5072,1839 5092,1839 5111,1839 5131,1839 5151,1839 5171,1653 5190,2584 5210,2584 5230,2584 5249,2584 5269,2584 5289,2584 5308,2398 5328,2584 5348,2770 5368,2584 5387,2584 5407,2398 5427,2398 5446,2398 5466,2584 5486,2584 5505,2584 5525,2584 5545,2398 5565,2398 5584,2584 5604,2584 5624,2584 5643,2584 5663,2584 5683,2584 5703,2584 5722,2211 5742,2584 5762,2584 5781,2584 5801,2584 5821,2584 5840,2398 5860,2584 5880,2584 5900,2584 5919,2584 5939,2584 5959,2584 5978,2584 5998,2584 6018,2770 6037,2584 6057,2584 6077,2770 6097,2584 6116,2584 6136,2584 6156,2770 6175,2584 6195,2584 6215,2584 6234,2584 6254,2584 6274,2770 6294,2584 6313,2770 6333,2770 6353,2584 6372,2584 6392,2584 6412,2584 6432,2584 6451,2770 6471,2770 6491,2770 6510,2584 6530,2584 6550,2584 6569,2584 6589,2584 6609,2770 6629,2584 6648,2584 6668,2398 6688,2584 6707,2584 6727,2584 6747,2584 6766,2584 6786,2584 6806,2584 6826,2584 6845,2584 6865,2584 6885,2584 6904,2584 6924,2770 6944,2770 6963,2584 6983,2584 7003,2584 7023,2770 7042,2584 7062,2770 7082,2584 7101,2770 7121,2770 7141,2584 7161,2770 7180,2584 7200,2770 7220,2584 7239,2957 7259,2770 7279,2584 7298,2584 7318,2584 7338,2770 7358,2770 7377,2770 7397,2584 7417,2584 7436,2398 7456,2770 7476,2770 7495,2770 7515,2770 7535,2770 7555,2770 7574,2770 7594,2770 7614,2770 7633,2584 7653,2584 7673,2398 7692,2398 7712,2398 7732,2398 7752,2584 7771,2398 7791,2398 7811,2584 7830,2584 7850,2584 7870,2584 7890,2584 7909,2584 7929,2584 7949,2584 7968,2584 7988,2584 8008,2584 8027,2584 8046,2584 8066,2584 8086,2398 8105,2770 8125,2770 8145,2770 8164,2770 8184,2770 8204,2957 8223,2957 8243,2957 8263,2957 8283,2770 8302,2770 8322,2770 8342,2770 8361,2957 8381,2957 8401,2957 8420,2770 8440,2770 8460,2957 8480,2957 8499,2957 8519,2957 8539,2957 8558,2770 8578,2770 8598,2584 8618,2770 8637,2770 8657,2957 8677,2770 8696,2584 8716,2770 8736,2770 8755,2770 8775,2770 8795,2770 8815,2770 8834,2584 8854,2398 8874,2770 8893,2770 8913,2770 8933,2584 8952,2584 8972,2398 8992,2398 9012,2770 9031,2770 9051,2770 9071,2770 9090,2584 9110,2398 9130,2398 9149,2770 9169,2770 9189,2584 9209,2398 9228,2398 9248,2398 9268,2211 9287,2398 9307,2770 9327,2025 9347,2398 9366,2211 9386,2211 9406,2398 9425,2211 9445,2211 9465,2211 9484,2211 9504,2211 9524,2398 9544,2025 9563,2025 9583,2025 9603,2398 9622,2211 9642,2398 9662,2211 9681,2211 9701,2211 9721,2398 9741,2398 9760,2398 9780,2398 9800,2211 9819,2211 9839,2211 9859,2211 9878,2211 9898,2025 9918,2211 9938,2025 9957,2025 9977,2211 9997,2211 10016,2025 10036,2211 10056,2211 10076,2398 10095,2211 10115,2211 10135,2398 10154,2398 10174,2211 10194,2211 10213,2211 10233,2211 10253,2398 10273,2398 10292,2025 10312,2211 10332,2211 10351,2211 10371,2211 10391,2211 10410,2211 10430,2584 10450,1466 10470,1466 10489,1466 10509,1466 10529,1653 10548,2025 10568,2025 10588,2211 10607,2211 10627,2211 10647,2211 10667,2398 10686,2398 10706,2398 10726,2211 10745,2211 10765,2025 10785,2211 10805,2025 10824,2025 10844,2025 10864,2211 10883,2211 10903,2584 10923,2398 10942,2398 10962,2398 10982,1653 11002,1839 11021,1839 11041,1653 11061,1653 11080,1839 11100,2025 11120,2025 11139,2025 11159,1653 11179,1653 11199,2025 11218,2025 11238,1839 11258,1839 11277,1653 11297,1653 11317,1653 11336,1466 11356,1653 11376,1653 11396,1653 11415,2025 11435,2025 11455,2025 11474,2025 11494,2025 11514,2025 11534,2025 11553,2211 11573,2211 11593,2025 11612,2025 11632,2025 11652,2211 11671,2398 11691,2398 11711,2398 11731,2398 11750,2398 11770,2398 11790,2211 11809,2211 11829,2025 11849,2211 11868,2211 11888,2211 11908,2211 11928,2211 11947,2398 11967,2398 11987,2398 12006,2211 12026,2398 12046,2211 12065,2211 12085,2211 12105,2398 12125,2398 12144,2211 12164,2398 12184,2398 12203,2025 12223,2211 12243,2211 12263,2211 12282,2211 12302,2211 12322,2025 12341,2025 12361,2025 12381,2398 12400,2398 12420,2398 12440,2398 12460,2211 12479,2211 12499,2211 12519,2398 12538,2398 12558,2398 12578,2398 12597,2025 12617,2025 12637,2398 12657,2211 12676,2211 12696,2211 12716,2211 12735,2025 12755,1839 12775,2398 12794,2398 12814,2398 12834,1653 12854,1653 12873,1653 12893,1653 12913,1839 12932,2398 12952,2025 12972,2398 12992,2211 13011,2398 13031,2025 13051,1280 13070,1466 13090,2770 13110,2770 13129,2770 13149,2957 13169,2957 13189,2957 13208,2398 13228,2025 13248,2025 13267,2025 13287,2957 13307,2957 13326,2957 13346,2770 13366,2398 13386,2770 13405,2957 13425,2957 13445,2957 13464,2770 13484,2957 13504,2398 13523,2398 13543,2025 13563,2398 13583,2398 13602,1653 13622,2398 13642,1839 13661,2398 13681,2584 13701,2398 13721,2957 13740,2770 13760,2398 13780,2957 13799,2957 13819,2770 13839,2957 13858,2957 13878,2211 13898,2025 13918,2025 13937,2025 13957,1653 13977,2025 13996,1839 14016,1839 14036,2025 14055,2025 14075,2398 14095,2025 14115,2025 14134,1839 14154,2025 14174,1653 14193,1653 14213,1653 14233,2211 14252,2211 14272,2398 14292,2398 14312,2398 14331,2025 14351,1839 14371,2025 14390,2211 14410,2025 14430,2211 14450,2025 14469,2398 14489,2398 14509,2398 14528,2398 14548,2398 14568,2398 14587,2398 14607,2211 14627,2211 14647,2211 14666,2211 14686,2211 14706,1653 14725,1839 14745,1839 14765,2025 14784,1839 14804,1839 14824,1839 14844,1839 14863,2025 14883,1653 14903,2025 14922,2025 14942,2025 14962,1839 14981,1653 15001,2025 15021,2025 15041,2025 15060,2025 15080,2025 15100,2025 15119,1839 15139,1466 15159,2025 15179,2211 15198,2025 15218,1466 15238,1094 15257,1094 15277,1466 15297,1466 15316,1466 15336,1466 15356,1094 15376,1280 15395,1094 15415,1094 15435,907 15454,1094 15474,1094 15494,721 15513,721 15533,721 15553,907 15573,721 15592,907 15612,907 15632,907 15651,721 15671,721 15691,721 15710,721"/>
 <text class="TextShape"><tspan class="TextParagraph" font-family="Liberation Sans, sans-serif" font-size="353px" font-weight="400"><tspan class="TextPosition" x="709" y="8851"><tspan fill="rgb(0,0,0)" stroke="none">10</tspan></tspan></tspan></text>
 <text class="TextShape"><tspan class="TextParagraph" font-family="Liberation Sans, sans-serif" font-size="353px" font-weight="400"><tspan class="TextPosition" x="709" y="7919"><tspan fill="rgb(0,0,0)" stroke="none">15</tspan></tspan></tspan></text>
 <text class="TextShape"><tspan class="TextParagraph" font-family="Liberation Sans, sans-serif" font-size="353px" font-weight="400"><tspan class="TextPosition" x="709" y="6988"><tspan fill="rgb(0,0,0)" stroke="none">20</tspan></tspan></tspan></text>
 <text class="TextShape"><tspan class="TextParagraph" font-family="Liberation Sans, sans-serif" font-size="353px" font-weight="400"><tspan class="TextPosition" x="709" y="6056"><tspan fill="rgb(0,0,0)" stroke="none">25</tspan></tspan></tspan></text>
 <text class="TextShape"><tspan class="TextParagraph" font-family="Liberation Sans, sans-serif" font-size="353px" font-weight="400"><tspan class="TextPosition" x="709" y="5125"><tspan fill="rgb(0,0,0)" stroke="none">30</tspan></tspan></tspan></text>
 <text class="TextShape"><tspan class="TextParagraph" font-family="Liberation Sans, sans-serif" font-size="353px" font-weight="400"><tspan class="TextPosition" x="709" y="4193"><tspan fill="rgb(0,0,0)" stroke="none">35</tspan></tspan></tspan></text>
 <text class="TextShape"><tspan class="TextParagraph" font-family="Liberation Sans, sans-serif" font-size="353px" font-weight="400"><tspan class="TextPosition" x="709" y="3262"><tspan fill="rgb(0,0,0)" stroke="none">40</tspan></tspan></tspan></text>
 <text class="TextShape"><tspan class="TextParagraph" font-family="Liberation Sans, sans-serif" font-size="353px" font-weight="400"><tspan class="TextPosition" x="709" y="2330"><tspan fill="rgb(0,0,0)" stroke="none">45</tspan></tspan></tspan></text>
 <text class="TextShape"><tspan class="TextParagraph" font-family="Liberation Sans, sans-serif" font-size="353px" font-weight="400"><tspan class="TextPosition" x="709" y="1399"><tspan fill="rgb(0,0,0)" stroke="none">50</tspan></tspan></tspan></text>
 <text class="TextShape"><tspan class="TextParagraph" font-family="Liberation Sans, sans-serif" font-size="353px" font-weight="400"><tspan class="TextPosition" x="709" y="468"><tspan fill="rgb(0,0,0)" stroke="none">55</tspan></tspan></tspan></text>
 <path fill="none" stroke="rgb(0,127,255)" stroke-width="80" stroke-linejoin="round" d="M 1822,3692 L 2622,3692"/>
 <path fill="none" stroke="rgb(255,66,14)" stroke-width="40" stroke-linejoin="round" d="M 6270,3692 L 7070,3692"/>
 <path fill="none" stroke="rgb(255,211,32)" stroke-width="40" stroke-linejoin="round" d="M 10902,3692 L 11702,3692"/>
 <text class="TextShape"><tspan class="TextParagraph" font-family="Liberation Sans, sans-serif" font-size="353px" font-weight="400"><tspan class="TextPosition" x="2722" y="3811"><tspan fill="rgb(0,0,0)" stroke="none">Temperatura media</tspan></tspan></tspan></text>
 <text class="TextShape"><tspan class="TextParagraph" font-family="Liberation Sans, sans-serif" font-size="353px" font-weight="400"><tspan class="TextPosition" x="7170" y="3811"><tspan fill="rgb(0,0,0)" stroke="none">Temperatura minima</tspan></tspan></tspan></text>
 <text class="TextShape"><tspan class="TextParagraph" font-family="Liberation Sans, sans-serif" font-size="353px" font-weight="400"><tspan class="TextPosition" x="11802" y="3811"><tspan fill="rgb(0,0,0)" stroke="none">Temperatura massima</tspan></tspan></tspan></text>
 <text class="TextShape" transform="translate(405,5653) rotate(-90) translate(-405,-5653)"><tspan class="TextParagraph" font-family="Liberation Sans, sans-serif" font-size="318px" font-weight="400"><tspan class="TextPosition" x="405" y="5653"><tspan fill="rgb(0,0,0)" stroke="none">Temperatura (°C)</tspan></tspan></tspan></text>
</svg>